<svg xmlns="http://www.w3.org/2000/svg" width="1667" height="1667"><path fill="#188a8b" d="m1055.313 338.813 2.779.001c102.402.182 204.178 32.543 286.908 93.186l1.73 1.266c14.23 10.454 27.852 21.701 40.907 33.59q2.265 2.057 4.57 4.07c5.882 5.16 11.44 10.614 16.98 16.137l2.305 2.29c4.16 4.171 8.152 8.43 11.996 12.894 1.873 2.17 3.817 4.272 5.762 6.378 5.052 5.607 9.678 11.499 14.279 17.476a567 567 0 0 0 4.428 5.626c55.166 69.979 89.366 156.488 99.355 244.836l.247 2.177c1.969 17.672 2.681 35.176 2.691 52.947l.002 3.33c-.075 77.639-18.606 152.503-53.252 221.983l-1.493 2.998c-20.22 40.328-47.44 81.414-80.277 112.744-1.926 1.95-3.695 3.944-5.476 6.024-3.751 4.321-7.809 8.223-12.004 12.109l-2.262 2.11A2590 2590 0 0 1 1389 1199l-1.677 1.56A344 344 0 0 1 1367 1218l-1.917 1.53c-73.322 58.4-161.382 95.126-282.458 107.72l-2.284.125c-11.118.589-22.21.742-33.341.625l-3.148-.032C962.824 1326.612 882.128 1303.73 738 1212l-1.546-1.29c-15.689-13.1-31.315-27.04-44.618-42.593-2.188-2.523-4.449-4.973-6.711-7.43-4.917-5.404-9.579-10.969-14.125-16.687l-1.499-1.869A496.6 496.6 0 0 1 590 1000l-1.155-3.178c-16.786-46.654-26.856-97.538-27.048-147.19l-.021-3.714q-.026-5.896-.026-11.793l-.001-2.032c-.007-20.531.383-40.731 3.251-61.093l.52-3.893C575.872 690.11 604.437 615.71 649 552l1.564-2.243c7.692-10.969 15.833-21.49 24.436-31.757l1.51-1.811c11.16-13.34 23.093-25.872 35.365-38.189l2.666-2.68c4.992-4.98 10.088-9.751 15.459-14.32q1.515-1.316 3.027-2.633C741.757 450.891 750.81 443.9 760 437l1.898-1.437c83.737-63.371 188.705-96.88 293.415-96.75M1006 502l-3.226.52c-61.282 10.153-121.405 36.827-167.297 79.214a286 286 0 0 1-6.239 5.516c-4.393 3.836-8.555 7.875-12.676 12-1.12 1.12-1.12 1.12-2.261 2.264-4.722 4.775-9.138 9.614-13.278 14.904-2.2 2.808-4.513 5.5-6.836 8.207-21.28 25.582-38.1 55.443-50.187 86.375l-.9 2.26c-11.52 29.078-17.97 59.684-21.1 90.74l-.218 2.162C714.655 881.555 736.307 961.238 780 1023l1.594 2.254c7.908 11.105 16.25 21.648 25.406 31.746l1.603 1.774c8.37 9.236 16.908 18.13 26.397 26.226l2.727 2.39c15.588 13.571 32.454 25.174 50.273 35.61l2.62 1.539c75.06 43.626 167.034 54.754 250.786 32.832 5.919-1.629 11.762-3.459 17.594-5.371l2.987-.963c40.138-13.106 80.649-34.87 111.607-63.807a208 208 0 0 1 6.004-5.32c4.83-4.215 9.379-8.7 13.91-13.233q2.13-2.122 4.271-4.232c6.183-6.17 11.792-12.608 17.221-19.445q1.5-1.814 3.012-3.617C1342.514 1011.74 1360.406 977.2 1373 941l.87-2.481c28.265-81.66 20.849-173.92-16.494-251.353-13.834-28.002-31.087-53.616-52.13-76.701a504 504 0 0 1-4.46-4.961c-7.754-8.734-15.882-16.946-24.786-24.504l-2.754-2.418c-51.34-44.77-116.117-70.42-183.246-78.582l-2.502-.321c-10.11-1.123-20.34-.923-30.498-.929l-3.111-.002c-16.158.017-31.916.614-47.889 3.252"/><path fill="#188789" d="m610.313 338.813 2.779.001C679.724 338.933 745.836 352.507 807 379v3l-2.48 1.17C763.34 402.67 725.025 425.709 690 455l-1.596 1.334c-12.804 10.742-24.937 22.126-36.779 33.916l-2.255 2.241-2.08 2.087-1.854 1.857c-1.53 1.523-1.53 1.523-2.436 3.565l-1.906-.02c-6.703-.068-13.406-.112-20.11-.145q-3.724-.022-7.449-.061C530.6 498.916 452.448 528.876 390 583l-2.441 2.098c-11.262 9.89-22.299 20.511-31.543 32.332-2.154 2.746-4.423 5.366-6.704 8.008-11.727 14.094-21.53 29.5-30.312 45.562l-1.46 2.634C297.181 710.544 284.175 751.148 279 793l-.312 2.475c-10.41 86.632 15.58 175.09 69.164 243.568 16.637 21.012 35.085 40.527 56.513 56.707a233 233 0 0 1 4.623 3.656c43.855 35.039 98.87 56.239 154.012 64.594l3.303.5c13.19 1.882 25.894 2.625 39.19 2.117l6.708-.198c4.419-.132 8.815-.372 13.225-.672 15.872-.722 15.872-.722 22.112 4.585 3.332 3.339 6.215 6.964 9.012 10.757 1.83 2.413 3.885 4.463 6.106 6.516l1.944 1.83 1.9 1.753 2.13 1.983c39.503 36.566 84.481 66.303 133.337 88.874 2.029.953 4.033 1.945 6.033 2.955v2c-60.317 25.636-122.52 38.613-188 41l-2.896.11c-5.38.174-10.726.098-16.104-.11l-3.755-.14c-74.343-2.933-144.61-20.636-211.245-53.86l-2.801-1.395c-13.543-6.792-26.458-14.412-39.199-22.605l-1.854-1.191c-16.808-10.865-32.799-22.977-48.146-35.809l-1.58-1.318c-17.153-14.359-34.386-29.694-48.834-46.819-1.888-2.218-3.863-4.345-5.836-6.488-5.052-5.607-9.678-11.499-14.279-17.476a567 567 0 0 0-4.428-5.626c-13.662-17.336-26.207-36.04-37.043-55.273l-1.315-2.316c-30.696-54.3-51.118-113.48-59.872-175.246l-.47-3.29c-2.934-21.857-3.718-43.61-3.656-65.648l.007-4.147c.043-19.928.393-39.601 3.306-59.353l.301-2.094c7.852-54.497 23.11-107.77 48.589-156.755 1.267-2.455 2.504-4.924 3.743-7.393C186.06 577.224 202.448 552.24 221 529l1.527-1.92c6.132-7.697 12.351-15.25 19.059-22.455 1.282-1.394 2.559-2.795 3.786-4.238 5.425-6.37 11.33-12.24 17.252-18.142q2.714-2.707 5.417-5.423c5.816-5.82 11.651-11.53 17.959-16.822q1.586-1.368 3.168-2.738c62.807-53.545 138.964-91.514 321.145-118.45"/><path fill="#16737c" d="M1019 555c1.581 1.403 1.581 1.403 2.922 3.383l1.53 2.223L1025 563l1.533 2.339a427 427 0 0 1 4.717 7.536l1.708 2.774a473 473 0 0 1 21.988 40.19c1.128 2.312 2.275 4.613 3.421 6.915 23.824 48.332 38.022 101.721 43.946 155.183l.246 2.227c1.913 17.55 2.651 34.998 2.629 52.649l-.003 2.856c-.034 15.857-.462 31.554-2.185 47.331l-.221 2.035c-3.859 35.058-10.975 69.38-21.779 102.965l-.853 2.653c-11.631 35.099-35.274 67.374-58.69 95.58a392 392 0 0 0-3.992 4.927A425 425 0 0 1 1011 1099l-1.977 2.484-1.96 2.266-1.653 1.984c-6.586 3.459-16.508-.541-23.285-2.359l-3.025-.805c-17.038-4.641-33.206-10.892-49.1-18.57l-2.386-1.151C909 1073.738 892.007 1062.117 876 1049a2737 2737 0 0 0-5-4c1.456-4.32 3.653-7.334 6.5-10.875 10.148-12.904 18.5-26.812 26.5-41.125l1.281-2.264c24.109-42.83 38.695-94.578 38.922-143.834l.022-3.103c.305-31.031.305-31.031-3.225-61.799l-.618-3.455c-10.163-55.354-31.77-108.225-67.652-151.979C871 624 871 624 871 620a48.6 48.6 0 0 1 5.313-4.937l1.739-1.432C912.837 585.586 972.482 550.556 1019 555"/><path fill="#0e3d5b" d="m1342 1006 1 2a98 98 0 0 1-3.437 6.625l-1.026 1.852A674 674 0 0 1 1336 1021l-2-1c1.326-3.623 2.943-6.635 5.125-9.812l1.633-2.395z"/><path fill="#0f405d" d="M1379 741c2.27 3.404 2.365 5.165 2.625 9.188l.227 3.292.148 2.52c-1.669-3.02-2.523-5.806-3.187-9.187l-.543-2.668L1378 742z"/></svg>