<svg xmlns="http://www.w3.org/2000/svg" width="6450" height="1865"><path fill="#21cfb5" d="m1210.18 778.797 2.336-.017q2.444-.014 4.886-.02c2.432-.01 4.862-.04 7.293-.072 32.597-.222 63.828 10.628 87.461 33.445C1327.71 827.612 1338.51 847.49 1343 869h2l1-3.5c10.921-32.357 36.9-57.607 67.004-72.535 7.077-3.335 14.407-5.893 21.871-8.215l2.246-.71c14.073-4.147 28.293-5.544 42.91-5.431 2.469.016 4.935 0 7.403-.02 14.108-.018 27.968 1.702 41.566 5.598l2.21.63c20.398 6.1 38.125 16.916 53.79 31.183l2.008 1.793c28.077 26.445 39.7 66.79 40.992 104.207.171 9.297.13 18.598.116 27.896q-.005 5.652-.002 11.304 0 9.765-.008 19.532-.011 14.12-.012 28.239-.004 22.914-.019 45.828-.014 22.245-.02 44.488v2.775l-.005 13.785q-.016 57.076-.05 114.153h-122l-.044-25.984a95595 95595 0 0 0-.218-95.275l-.007-2.578q-.051-20.624-.081-41.248-.033-21.186-.099-42.372-.04-13.058-.05-26.114-.01-8.972-.047-17.944a1999 1999 0 0 1-.019-10.33c.012-26.434-1.758-51.508-20.841-71.768-16.01-14.732-36.907-17.264-57.804-16.562-18.297 1.147-34.846 9.553-47.415 22.8-14.934 17.935-19.512 40.17-19.533 62.935l-.015 3.439q-.021 5.679-.032 11.359l-.03 8.161q-.033 8.774-.056 17.547-.035 12.684-.08 25.369-.071 20.581-.132 41.164-.059 19.988-.125 39.975l-.008 2.492-.041 12.372q-.17 51.281-.323 102.562h-117l-.028-26.443a73861 73861 0 0 0-.18-96.952l-.005-2.623c-.031-13.992-.048-27.984-.06-41.976q-.02-21.559-.082-43.118-.038-13.287-.036-26.574-.001-9.13-.041-18.26c-.015-3.504-.023-7.007-.014-10.511.09-25.802.09-25.802-8.242-49.98-.34-.655-.682-1.309-1.033-1.983-3.258-5.992-7.278-10.933-12.279-15.58-.686-.643-1.372-1.286-2.078-1.95-15.747-13.442-37.085-15.584-56.922-14.05-18.513 2.235-36.173 12.11-47.75 26.625-11.134 15.696-16.39 33.653-16.408 52.802l-.015 3.505q-.018 4.803-.028 9.606-.013 5.183-.034 10.367-.033 8.977-.056 17.955-.035 12.979-.08 25.958-.071 21.06-.132 42.118a115587 115587 0 0 1-.174 56.112q-.17 52.476-.323 104.952H974V787h117v80h2l.494-1.858c1.753-6.247 4.061-11.81 7.131-17.517l1.336-2.5c16.091-29.464 43.466-51.085 75.36-61.098 10.808-3.017 21.615-5.164 32.859-5.23"/><path fill="#146574" d="m3712 821 2.598 2.145c17.802 15.27 29.471 36.277 35.402 58.855l1.504-3.078c12.49-25.399 27.499-46.363 51.496-61.922l2.844-1.887c34.378-21.486 78.317-24.424 117.125-16.082 23.377 5.44 43.453 16.846 61.031 32.969l2.043 1.793c26.92 24.874 37.33 64.185 38.867 99.442.323 9.887.221 19.787.206 29.678q-.005 5.412-.002 10.824 0 9.346-.008 18.693-.011 13.514-.012 27.027-.004 21.931-.019 43.863-.014 21.288-.02 42.576v2.657l-.005 13.196q-.016 54.626-.05 109.251h-118l-.028-25.019a66332 66332 0 0 0-.18-91.802l-.005-2.486c-.031-13.242-.048-26.485-.06-39.728q-.02-20.415-.082-40.83-.038-12.576-.036-25.151-.001-8.648-.041-17.297-.023-4.973-.014-9.947c.046-24.538-1.45-50.094-19.554-68.74-14.397-13.448-32.783-17.386-51.926-17.215-18.905.734-36.888 7.943-50.012 21.77-14.286 16.938-19.2 37.896-19.22 59.581l-.015 3.337c-.016 3.68-.024 7.358-.032 11.037l-.03 7.924q-.032 8.523-.056 17.044-.035 12.322-.08 24.643-.071 19.992-.132 39.984-.059 19.416-.125 38.832l-.008 2.42-.041 12.017q-.17 49.812-.323 99.626h-113l-.028-25.326a67845 67845 0 0 0-.18-92.887l-.005-2.514c-.031-13.403-.048-26.805-.06-40.208q-.02-20.655-.082-41.311-.038-12.727-.036-25.455-.001-8.75-.041-17.497-.023-5.034-.014-10.069c.045-24.367-1.821-48.03-19.792-66.33-15.452-13.441-34.706-17.66-54.762-16.403-15.467 1.595-28.962 7.01-41 17l-1.918 1.574c-15.453 14.038-22.046 36.089-23.254 56.3-.29 7.86-.266 15.723-.26 23.587l-.031 7.87a5209 5209 0 0 0-.04 16.834c-.006 8.113-.029 16.226-.056 24.338q-.063 19.752-.095 39.502-.03 19.169-.084 38.336l-.006 2.418-.053 18.723c-.087 30.506-.143 61.012-.203 91.518h-117V803h113v77h2l.34-1.59c6.908-27.136 29.406-51.632 53.035-65.722 44.547-25.605 110.26-26.055 150.625 8.312"/><path fill="#1ba199" d="m2330 804 2.125.678c22.055 7.198 42.157 19.296 58.875 35.322l2.484 2.293c21.56 20.522 35.624 51.65 36.607 81.476.035 3.32.037 6.64.03 9.962l.002 3.857q.002 5.274-.007 10.549-.005 5.697-.002 11.394 0 9.862-.008 19.726-.011 14.259-.012 28.519-.004 23.138-.019 46.274-.014 22.47-.02 44.943v2.8l-.005 13.904q-.016 57.652-.05 115.303h-113v-65c-2.659 2.659-4.213 4.823-6.125 8-19.94 31.68-53.194 52.05-89.29 60.277-42.293 9.03-87.774 3.096-124.585-20.277-20.749-13.608-35.917-32.556-46-55l-1.465-3.234c-4.988-11.949-8.09-25.795-8.535-38.766l-.078-1.917c-1.167-32.334 7.042-63.191 29.113-87.493 17.273-18.292 39.39-29.557 62.965-37.59l2.165-.745c37.673-12.703 78.824-12.986 118.121-15.242q6.986-.406 13.971-.822 6.774-.4 13.548-.795 3.213-.187 6.425-.377 4.468-.261 8.937-.516l2.626-.156c5.411-.304 10.787-.39 16.207-.347q-.106-7.306-.262-14.612-.05-2.475-.084-4.951c-.281-19.67-2.943-37.485-17.279-52.257-13.428-12.324-30.417-17.217-48.375-18.18l-2.238-.125c-21.646-.582-43.537 4.75-60.344 18.805-10.19 9.778-15.046 20.834-18.418 34.32h-108c2.345-23.45 2.345-23.45 4.125-30.125l.637-2.459c7.527-27.425 24.772-52.183 47.238-69.416l2.582-2.023C2145.05 806.863 2182.534 796.93 2220 793l3.797-.402c35.74-3.006 72.056.383 106.203 11.402m-44.785 239.988-5.126.315q-5.352.33-10.703.668c-4.515.285-9.03.557-13.546.827q-5.292.32-10.582.656-2.493.156-4.985.303c-14.92.882-30.596 1.935-44.773 6.993l-2.234.774c-6.353 2.306-11.887 5.363-17.266 9.476l-2.23 1.684c-8.415 6.836-13.673 15.665-15.77 26.316-1.568 15.831 1.332 29.06 11.5 41.563 12.95 13.844 32.13 18.714 50.5 19.437 28.444.502 54.527-9.416 75.191-29.086 13.356-14.061 20.031-32.702 19.907-51.91l-.005-2.526c-.005-2.639-.018-5.277-.03-7.916q-.008-2.697-.014-5.396-.017-6.583-.049-13.166c-9.966-.173-19.845.368-29.785.988"/><path fill="#115268" d="m4400 836 2.52 2.148c23.904 20.93 39.364 50.069 42.48 81.852.501 9.411.389 18.844.348 28.266-.013 3.804-.008 7.608-.006 11.412q.001 9.858-.025 19.715c-.024 9.502-.032 19.003-.036 28.504q-.01 23.13-.055 46.259-.041 22.452-.061 44.904l-.003 2.802-.011 13.915c-.031 38.408-.086 76.815-.151 115.223h-113v-65h-2l-.816 2.184c-3.998 9.512-10.726 17.075-17.818 24.395a206 206 0 0 0-3.698 3.98c-11.366 12.102-25.585 20.76-40.668 27.441l-1.865.834c-40.48 17.842-86.984 17.555-128.168 2.098-32.038-12.709-56.989-36.644-71.12-67.963-12.727-29.562-13.994-66.475-2.09-96.547 6.024-14.464 14.235-26.314 25.243-37.422l2.586-2.625c32.418-31.153 81.857-40.629 124.977-43.82l2.526-.191c20.007-1.51 40.032-2.717 60.062-3.888q5.677-.334 11.356-.676 5.535-.33 11.07-.656l5.213-.31q3.604-.214 7.21-.423l2.107-.127c4.64-.265 9.247-.318 13.893-.284a1571 1571 0 0 0-.208-14.93q-.041-2.527-.063-5.055c-.175-19.574-3.25-37.017-17.268-51.734-6.324-5.862-13.43-9.503-21.399-12.593l-1.877-.736c-9.83-3.572-20.054-4.321-30.435-4.264-1.09.005-2.18.01-3.302.017-20.789.31-40.834 6.028-56.26 20.607-8.614 9.075-12.8 19.831-16.188 31.688h-108c2.338-22.216 2.338-22.216 4.188-29.125l.649-2.487c5.016-18.4 13.64-34.976 26.163-49.388l2.113-2.48c29.626-33.942 72.348-49.291 115.887-55.52l2.441-.36c58.502-8.203 127.5.925 173.559 40.36m-102.895 208.988-5.052.315q-5.26.33-10.521.668c-4.44.286-8.88.558-13.321.827q-5.21.32-10.417.656-2.453.156-4.904.303c-8.584.516-17.048 1.29-25.537 2.685l-2.187.358c-17.621 3.079-33.139 10.333-44.826 24.165-7.485 10.826-8.866 24.326-6.867 37.043 2.899 12.187 9.295 22.185 19.73 29.12 21.897 13.421 47.249 14.614 71.797 8.872 14.893-3.745 28.613-10.681 40-21l2.55-2.27c12.425-11.67 21.734-28.529 22.55-45.847.146-6.003.082-12.005.025-18.008q-.016-2.75-.027-5.5-.035-6.687-.098-13.375c-11.01-.144-21.91.287-32.895.988"/><path fill="#0e3757" d="m5292.563 793.75 2.598-.002c53.578.067 106.436 13.681 145.573 51.924 14.463 15.182 24.629 34.205 30.266 54.328l.527 1.852c1.74 6.82 1.747 13.448 1.714 20.455q0 2.004.005 4.008c.004 3.65-.004 7.301-.014 10.952-.009 3.945-.006 7.89-.004 11.834q.001 10.242-.017 20.484c-.016 9.871-.021 19.743-.024 29.615q-.007 24.026-.036 48.052-.028 23.335-.041 46.67l-.002 2.907-.007 14.44c-.021 39.91-.058 79.82-.101 119.731h-111v-65h-2l-.785 2.152c-4.468 10.473-12.425 18.77-20.215 26.848l-1.953 2.145c-24.205 25.835-63.127 39.471-97.919 40.98-40.422 1.052-78.552-7.904-110.128-34.125l-2.871-2.367c-23.375-20.225-37.326-50.572-39.966-81.188-2.148-32.167 4.532-63.51 25.837-88.445 8.878-10.009 18.578-18.053 30-25l1.962-1.198c39.353-23.495 86.492-26.736 131.132-29.278 4.3-.247 8.598-.507 12.896-.766q11.333-.68 22.665-1.33c5.72-.331 11.438-.674 17.156-1.02l6.987-.422 4.377-.267c6.95-.429 13.86-.84 20.825-.719q-.106-7.093-.262-14.185a780 780 0 0 1-.084-4.805c-.293-19.852-3.086-38.76-17.974-53.272-18.88-15.934-42.006-17.798-65.68-16.738-20.271 1.76-38.751 10.557-52 26-6.192 7.95-7.895 16.065-11 26h-108c1.184-16.57 1.184-16.57 2.625-23.187l.523-2.405c5.311-23.064 16.122-42.838 31.852-60.408l1.394-1.565c37.229-41.107 98.12-53.647 151.168-53.685m34.289 251.238-5.128.315q-5.337.33-10.674.668c-4.51.286-9.02.558-13.53.827q-5.285.32-10.569.656-2.49.156-4.982.303c-25.015 1.48-50.891 5.18-68.969 24.243-8.818 10.468-11.193 22.622-10.223 35.953 1.444 13.247 8.367 23.418 18.293 31.942 18.588 13.358 43.067 15.499 65.118 11.918 18.917-3.38 35.567-10.857 49.812-23.813l2.137-1.855c12.921-11.907 21.124-29.704 21.963-47.232.144-5.7.083-11.4.025-17.1q-.016-2.599-.027-5.198-.035-6.307-.098-12.615c-11.094-.146-22.08.293-33.148.988"/><path fill="#1eb3a4" d="M2008.813 839c27.197 25.634 41.102 58.216 42.265 95.51.31 13.355.354 26.718.419 40.077.03 6.31.077 12.619.161 18.928.083 6.143.125 12.284.14 18.427q.018 3.488.078 6.974c.234 14.144-.46 23.483-8.876 35.084-14.569 27.798-15.788 62.287-6.741 92.015 5.227 16.661 5.227 16.661 14.741 30.985v54h-114v-65h-2l-.727 2.59c-1.4 3.752-3.306 6.766-5.648 9.973l-1.333 1.833c-23.4 31.53-58.454 49.298-96.616 56.061-40.194 5.937-84.518-1.33-117.798-25.673-5.248-3.954-10.129-8.245-14.878-12.784l-2.227-2c-19.915-18.578-32.43-47.812-33.994-74.824-.144-4.225-.165-8.449-.154-12.676v-2.264c.049-17.024 2.258-32.592 9.375-48.236l1.371-3.07c15.24-32.299 45.576-51.307 78.016-63.047 9.688-3.347 19.596-5.746 29.613-7.883l2.771-.593c12.827-2.644 25.719-3.886 38.756-4.852l2.524-.191c20.193-1.524 40.405-2.723 60.622-3.888q5.763-.334 11.525-.676 5.61-.33 11.221-.656l5.291-.31q3.655-.214 7.311-.423l2.147-.127A197 197 0 0 1 1935 972q-.106-7.761-.262-15.521a924 924 0 0 1-.084-5.263c-.255-18.952-2.538-35.708-16.252-49.97-17.259-16.137-38.825-19.015-61.457-18.531-20.837.784-40.384 8.16-54.945 23.285-7.262 8.604-10.936 18.274-14 29h-107c0-7.393.13-13.512 1.625-20.562l.542-2.594c8.083-36.99 29.468-66.101 61.064-86.715 25.592-16.342 54.856-24.977 84.769-29.129l2.433-.355c59.724-8.384 131.475 1.314 177.38 43.355m-106.708 205.988-5.052.315q-5.26.33-10.521.668c-4.44.286-8.88.558-13.321.827q-5.21.32-10.417.656-2.453.156-4.904.303c-8.586.516-17.05 1.29-25.541 2.689l-2.188.36c-16.415 2.871-33.832 9.741-43.942 23.643-7.681 12.293-10.21 25.275-7.157 39.551 3.618 12.81 11.163 22.64 22.715 29.227 22.303 12.007 48.058 12.506 72.125 5.707 13.223-4.135 24.602-9.803 35.098-18.934l3.125-2.375c12.907-11.784 21.654-28.606 23.077-46.103.274-6.176.166-12.344.048-18.522q-.03-2.781-.055-5.562c-.043-4.48-.112-8.959-.195-13.438-11.01-.144-21.91.287-32.895.988"/><path fill="#188a8b" d="m3104.625 722.688 2.795.005c14.056.047 27.752.592 41.58 3.307l2.629.488c44.756 8.477 87.286 29.067 120.371 60.512a510 510 0 0 0 4.25 3.688c6.454 5.625 12.25 11.758 17.75 18.312l1.269 1.498c43.207 51.306 62.367 117.035 57.27 183.525-3.89 41-18.133 83.485-42.539 116.977l-1.299 1.805c-13.512 18.718-28.508 35.897-46.701 50.195q-1.569 1.287-3.133 2.578c-47.906 39.172-112.6 58.135-174.15 52.7-53.528-5.464-105.842-25.37-145.233-62.91-2.084-1.987-4.208-3.842-6.421-5.68-21.132-18.469-37.108-43.037-50.063-67.688l-1.054-1.972c-28.777-54.493-32.241-122.672-15.035-181.123 11.415-36.538 30.287-68.73 56.089-96.905q1.368-1.524 2.734-3.05c5.127-5.706 10.32-11.088 16.266-15.95l3.523-2.96c13.586-11.33 27.888-20.707 43.477-29.04l1.924-1.039c35.089-18.795 74.08-27.437 113.701-27.274m-115.106 126.845a338 338 0 0 1-4.355 4.112c-12.224 11.682-21.467 25.37-29.164 40.356l-1.062 2.034c-5.812 11.241-9.848 22.704-12.938 34.966l-.642 2.468c-6.092 24.34-5.69 52.302.642 76.532l.666 2.593c7.346 27.914 20.94 52.038 40.91 72.911a380 380 0 0 1 4.158 4.46c26.785 28.49 68.149 46.416 107.08 48.162 45.619 1.164 86.36-12.396 121.186-42.126l2.438-2.062A111 111 0 0 0 3232 1080l1.243-1.508c27.998-34.133 43.042-77.73 39.25-122.043-2.409-23.33-8.913-45.993-20.493-66.449l-1.098-1.963c-4.653-8.25-9.669-15.872-15.902-23.037l-2.043-2.375A325 325 0 0 0 3226 855l-1.425-1.528c-29.116-30.973-71.132-49.351-113.59-50.675-45.451-.679-88.687 14.926-121.466 46.736"/><path fill="#104861" d="M4526 705h117v98h79v89h-79c.063 27.27.138 54.538.236 81.808q.07 18.993.11 37.987.034 16.56.103 33.122.037 8.763.049 17.526.01 8.262.056 16.523.014 3.02.011 6.039c-.01 15.685.06 32.364 10.935 44.87l2.5 2.125 2.25 2.063c11.167 7.867 23.438 8.25 36.688 8.124l3.92-.001c7.498-.035 14.62-.502 22.142-1.186v87c-9.2 1.84-17.749 3.537-27 4.188l-3.308.239c-44.315 2.882-99.502 2.747-135.434-27.486-12.213-10.76-19.761-24.195-24.57-39.566l-.699-2.18c-5.074-17.524-5.421-35.703-5.33-53.794v-7.162c-.002-6.412.016-12.823.037-19.235.017-6.043.02-12.086.023-18.128q.01-17.928.055-35.854a27014 27014 0 0 0 .075-47.754c.031-29.756.086-59.512.151-89.268h-60v-89h60z"/><path fill="#1a9591" d="M2482 655h118v576h-118z"/><path fill="#188789" d="m2881.625 722.688 2.795.005c14.056.047 27.752.592 41.58 3.307l2.629.488c17.477 3.31 36.725 7.863 52.371 16.512v2l-1.626.728c-22.599 10.201-42.63 23.234-61.561 39.21l-1.765 1.465c-2.985 2.551-5.513 5.087-7.86 8.242-3.665 4.733-6.896 8.76-13.038 9.87-6.93.425-13.827-.058-20.751-.426-37.102-.975-77.43 17.69-104.072 42.746A1203 1203 0 0 0 2766 851l-2.77 2.578c-30.687 29.327-47.03 72.116-48.23 114.149-.31 29.405 6.925 57.532 21 83.273l1.746 3.234c6.362 11.343 14.318 21.353 23.254 30.766l1.405 1.503c25.76 27.433 60.524 44.021 97.595 49.497l1.966.332c4.661.679 8.932.573 13.624.133 20.555-1.677 20.555-1.677 27.816 4.152 3.9 3.767 7.316 7.913 10.698 12.144 2.703 3.191 5.74 5.687 9.084 8.177l1.71 1.29q1.689 1.263 3.391 2.51a286 286 0 0 1 5.242 3.985c14.648 11.21 30.666 19.768 47.469 27.277-1 3-1 3-2.692 3.98l-2.226.852-2.517.972-2.753 1.008-2.854 1.06c-62.79 22.785-131.576 19.05-192.19-8.509-22.339-10.466-42.884-24.367-60.768-41.363a504 504 0 0 0-4.187-3.625c-7.79-6.808-14.38-14.285-20.813-22.375l-2.629-3.219c-40.801-50.291-58.862-115.857-52.551-180.065 7.378-64.503 38.999-126.193 90.188-166.939 45.35-35.486 98.88-55.327 156.617-55.09"/><path fill="#60f9ee" d="M4814 600h9v2h16v2h9v2h6v3h4v2h4v2h4v2h2v2h5v2h2v2h4v2h2v2h2v2h2v2h2v2h2v3h2v2h2v2h3v2h2v2h2v4h2v2h4v2h4v-2h4v-2h2v-2h2v-4h3v-2h2v-2h2v-2h2v-3h2v-2h2v-4h2v-2h2v-2h4v-2h2v-2h2v-2h5v-2h2v-2h4v-2h4v-3h6v-2h7v-2h16v-2h17v2h17v2h6v2h6v3h4v2h4v2h5v2h2v2h4v2h2v2h2v2h4v2h2v2h2v2h2v5h2v2h3v2h2v4h2v2h2v4h2v4h2v4h2v7h2v8h2v17h2v14h-2v17h-2v6h-2v6h-2v5h-2v4h-2v4h-2v2h-2v4h-2v2h-3v2h-2v5h-2v2h-4v2h-2v2h-2v2h-4v2h-2v2h-2v2h-5v2h-4v2h-4v2h-6v2h-6v3h-11v2h-31v-2h-13v-3h-6v-2h-4v-2h-4v-2h-4v-2h-4v-2h-3v-2h-4v-2h-2v-2h-2v-2h-2v-2h-2v-2h-2v-3h-2v-2h-2v-2h-2v-2h-2v-2h-3v-4h-2v-2h-2v-2h-2v-2h-2v-2h-6v2h-2v2h-2v2h-2v2h-2v2h-3v2h-2v2h-2v2h-2v4h-2v3h-2v2h-2v2h-2v2h-4v2h-2v2h-2v2h-5v2h-2v2h-4v2h-4v2h-4v2h-6v3h-9v2h-39v-2h-9v-3h-6v-2h-6v-2h-4v-2h-5v-2h-2v-2h-4v-2h-2v-2h-2v-2h-4v-2h-2v-2h-2v-2h-2v-3h-2v-4h-3v-2h-2v-2h-2v-4h-2v-2h-2v-4h-2v-7h-2v-4h-2v-8h-2v-17h-2v-16h2v-17h2v-6h2v-7h2v-4h2v-4h2v-4h2v-2h2v-2h2v-4h3v-2h2v-3h2v-2h2v-2h2v-2h2v-2h2v-2h4v-2h2v-2h2v-2h5v-2h4v-2h4v-2h4v-3h6v-2h9v-2h16z"/><path fill="#0f415d" d="M4762 803h118v428h-118z"/><path fill="#0f3d5b" d="M4933 803h116v428h-116z"/><path fill="#62fef2" d="M4814 600h9v2h16v2h9v2h6v3h4v2h4v2h4v2h2v2h5v2h2v2h4v2h2v2h2v2h2v2h2v2h2v3h2v2h2v2h3v2h2v2h2v4h2v2h4v2h4v-2h4v-2h2v-2h2v-4h3v-2h2v-2h2v-2h2v-3h2v-2h2v-4h2v-2h2v-2h4v-2h2v-2h2v-2h5v-2h2v-2h4v-2h4v-3h6v-2h7v-2h16v-2h17v2h17v2h6v2h6v3h4v2h4v2h5v2h2v2h4v2h2v2h2v2h4v2h2v2h2v2h2v5h2v2h3v2h2v4h2v2h2v4h2v4h2v4h2v7h2v8h2v17h2v14h-2v17h-2v6h-2v6h-2v5h-2v4h-2v4h-2v2h-2v4h-2v2h-3v2h-2v5h-2v2h-4v2h-2v2h-2v2h-4v2h-2v2h-2v2h-5v2h-4v2h-4v2h-6v2h-6v3h-11v2h-31v-2h-13v-3h-6v-2h-4v-2h-4v-2h-4v-2h-4v-2h-3v-2h-4v-2h-2v-2h-2v-2h-2v-2h-2v-2h-2v-3h-2v-2h-2v-2h-2v-2h-2v-2h-3v-4h-2v-2h-2v-2h-2v-2h-2v-2h-6v2h-2v2h-2v2h-2v2h-2v2h-3v2h-2v2h-2v2h-2v4h-2v3h-2v2h-2v2h-2v2h-4v2h-2v2h-2v2h-5v2h-2v2h-4v2h-4v2h-4v2h-6v3h-9v2h-39v-2h-9v-3h-6v-2h-6v-2h-4v-2h-5v-2h-2v-2h-4v-2h-2v-2h-2v-2h-4v-2h-2v-2h-2v-2h-2v-3h-2v-4h-3v-2h-2v-2h-2v-4h-2v-2h-2v-4h-2v-7h-2v-4h-2v-8h-2v-17h-2v-16h2v-17h2v-6h2v-7h2v-4h2v-4h2v-4h2v-2h2v-2h2v-4h3v-2h2v-3h2v-2h2v-2h2v-2h2v-2h2v-2h4v-2h2v-2h2v-2h5v-2h4v-2h4v-2h4v-3h6v-2h9v-2h16zm135 52a224 224 0 0 0-6.176 7.672c-2.384 3.043-4.96 5.888-7.574 8.734-1.456 1.519-1.456 1.519-1.25 3.594l-1.758.844c-2.82 1.454-5.406 3.184-8.047 4.937-7.587 4.212-15.799 4.119-24.195 3.219-11.696-3.888-20.399-16.12-27.828-25.367-6.465-7.837-13.351-13.598-22.172-18.633l-2.09-1.215c-13.232-7.17-29.775-7.876-44.347-4.722-11.142 3.4-20.932 9.16-29.563 16.937l-1.922 1.676c-11.487 10.649-18.646 26.21-19.297 41.754-.47 17.654 3.309 33.597 15.532 46.945 8.556 8.93 17.143 15.084 28.687 19.625l2.5 1.035c13.315 4.588 30.702 3.636 43.5-2.035l2.43-1.062c6.427-3.203 11.434-7.994 16.57-12.938l2.094-1.973c3.72-3.595 7.044-7.365 10.281-11.402 8.083-9.962 16.518-20.217 29.96-22.09 10.738-.313 18.026 2.195 26.2 9.11 4.28 4.09 7.823 8.702 11.465 13.355 11.424 14.132 24.112 27.092 43 30 13.947 1.18 27.17.993 40-5l2.926-1.281c15.18-7.386 27.557-21.853 33.074-37.719 4.115-14.228 3.983-31.382-2-45l-1.062-2.578c-7.74-17.093-21.512-29.42-38.66-36.555-26.641-9.162-52.128-.345-70.278 20.133"/><path fill="#16737d" d="M3087 831c7.52 6.622 12.34 19.176 17 28l1.067 1.994c27.304 51.714 31.48 115.407 17.56 171.48a285 285 0 0 0-1.148 4.795c-6.13 26.606-23.34 51.591-42.479 70.731-6.52.303-12.977-1.986-19.062-4.062l-2.774-.943c-16.638-5.82-31.765-14.53-45.164-25.995 1.442-3.183 3.3-5.993 5.274-8.87 12.211-17.82 20.97-36.14 26.601-57.068l.58-2.143c3.154-12.509 3.958-25.022 3.92-37.856l-.004-2.318c-.118-27.822-6.577-54.424-20.371-78.745l-1.114-1.98c-4.085-7.188-8.257-13.979-13.769-20.188C3012 866 3012 866 3011.93 864.078c1.673-3.248 4.414-5.06 7.32-7.14l1.997-1.439c16.954-11.841 44.1-26.905 65.753-24.499"/><path fill="#4ccac9" d="M5035.867 640.953c14.088 10.876 23.395 25.57 27.133 43.047 1.34 19.753-.507 37.214-13.861 52.775-10.854 12.016-25.609 21.828-42.077 23.528a179 179 0 0 1-9.374.135l-3.345-.023c-8.124-.165-14.894-.976-22.343-4.415l-2.793-1.215c-12.892-6.273-21.502-17.029-29.981-28.188-6.605-8.604-14.056-16.735-25.226-18.597-9.725-1.073-16.96.303-25 6-7.44 6.265-13.646 13.656-19.695 21.234-10.507 12.609-22.65 22.835-39.305 25.766-19.134 1.432-36.929-.946-52.234-13.582-13.038-11.325-23.59-25.856-24.93-43.589-.931-18.698 2.724-35.28 15.095-49.742 12.283-13.555 28.457-23.311 46.932-24.439 19.045-.73 33.642 3.963 48.2 16.602 6.01 5.6 11.485 11.692 16.804 17.945 9.978 11.784 9.978 11.784 23.867 17.239q2.009.034 4.016.004l2.13-.021c9.108-.28 15.428-3.394 22.12-9.417h2l.645-1.578c1.922-3.435 4.455-6.22 7.042-9.172l1.646-1.893a1986 1986 0 0 1 3.23-3.704 330 330 0 0 0 3.468-4.067c22.41-26.532 57.368-30.026 85.836-10.633M4786.375 646l-1.375 2a179 179 0 0 1-4 4l2 1-2.312 1.125c-2.921 1.72-2.921 1.72-4.25 5C4775 662 4775 662 4773 662.813l-2 .187c-3.756 1.252-4.147 2.63-6 6l-1 1a73 73 0 0 0-.114 4.612v2.972l.016 3.232.005 3.292c.005 3.485.018 6.97.03 10.455l.014 7.068q.017 8.685.049 17.369h2v4h5v4h4v4h2v3h2v2h4v4h4v4l4 1-2 3h52v-2h5v-4h2v-2h-2v-2h4v-2h4v-2h2v-3h2v-2h2v-4h2v-2h2v-2h2v-4h2v-2h3v-2h2v-2h2v-2h4v-3h4v-2h6v-2l36 1v1l2.75.438c2.465.426 4.838.913 7.25 1.562v3h2v2h2v2h2v2h2v2h3v4h2v2h2v-2h2v4h2v4h2v2h2v3h2v2l4 2v4c2.1 2.722 3.413 3.84 6.75 4.75l2.25.25v1h50v-2h-5v-2h7v-2h2v-2h-2v-2h8v-2h-2v-2h2v-3h4v-4h2v2h2v-6h5v-2h2v-4h2c.101-6.763.171-13.525.22-20.288q.03-3.451.082-6.902c.048-3.307.071-6.613.089-9.92l.062-3.118c.086-5.57.086-5.57-2.306-10.437-2.582-1.605-4.158-1.667-7.147-1.335l-1-4h-3v-5h-2v-2h-2v-2h-2v-4h-2v-2h-2v-2h-2v-2h-2v-2h-51l-1 5-3.375.75c-3.645.8-3.645.8-4.605 3.059L4962 651a129 129 0 0 1-3.937 4.313c-3.423 3.752-5.433 6.899-7.063 11.687l-2-2c-4.283 3.216-4.283 3.216-7.312 7.5-2.62 3.881-6.559 5.466-10.688 7.5v4h-46v-3h-4v-2h2v-2h-4v-2h-2v-2h-2v-2h-2v-2h-2v-2h-3v-2h-2l-1-2-3 2v-4h-2v-2h-4v-3h2v-2h-2v-2h-4v-2h-4v-2h2v-2h-2v-2h-2v-2h-3v-2c-6.868-.102-13.737-.172-20.605-.22q-3.504-.03-7.007-.082a1130 1130 0 0 0-10.083-.089l-3.154-.062c-7.045-.002-11.167.78-15.776 6.453"/><path fill="#4ccccb" d="m4977.949 633.76 2.409.013h2.73l2.951.032 3.018.008c3.19.011 6.379.037 9.568.062q3.238.016 6.477.027 7.95.034 15.898.098v2h2v2h4v2h4v2h2v2h2v2h2v2h2v2h2v2h2v2h3v5h2v4h2v2h2v2h2c2 2 2 2 2.24 3.987l-.013 2.463v2.79l-.032 3.018-.008 3.085c-.011 3.26-.037 6.521-.062 9.782q-.016 3.31-.027 6.621-.034 8.127-.098 16.254h-2v2h-2v2h-2v4h-2v2h-2v2h-3v4h-2v5h-4v2h-2v2h-2v2h-4v2h-2v2h-9v-2h7v-2h2v-2h-2v-2h8v-2h-2v-2h2v-3h4v-4h2v2h2v-6h5v-2h2v-4h2q-.102-9.986-.262-19.97-.051-3.4-.084-6.799c-.034-3.252-.086-6.503-.142-9.754l-.02-3.085-.06-2.85-.033-2.517L5049 670l-3-2v-3l-3 1c-2-1-2-1-4-4l-2-1v-5h-2v-2h-2v-2h-2v-4h-2v-2h-2v-2h-2v-2h-2v-2l-51 1-1 5-2.875.25-3.125.75a89 89 0 0 0-2 4 124 124 0 0 1-3.875 4.25c-3.667 4.02-5.955 7.778-8.125 12.75l-2-2c-2.73 1.992-4.74 3.548-6.438 6.5-2.002 3.203-4.356 4.563-7.562 6.5-3.248 1.722-3.248 1.722-4 5h-46v-3h-4v-2h2v-2h-4v-2h-2v-2h-2v-2h-2v-2h-2v-2h-3v-2h-6v-4h-2v-2h-4v-3h2v-2h-2v-2h-4v-2h-4v-2h14v2h2v2h2v2l4-1 2.562 3c12.894 16.872 12.894 16.872 31.215 25.441 11.346.535 19.759-1.823 28.223-9.441h2l1-3h6v-2h2v-2h3v-2h2v-2h2v-7h2v-2h2v-2h2v-2h2v-2h4v-2h2v-2h2v-2h2v-2l2.875-.875c2.83-1.019 4.26-3.018 7.074-3.366"/><path fill="#3facb1" d="M5035.867 640.953c14.088 10.876 23.395 25.57 27.133 43.047 1.34 19.753-.507 37.214-13.861 52.775-10.854 12.016-25.609 21.828-42.077 23.528a179 179 0 0 1-9.374.135l-3.345-.023c-8.124-.165-14.894-.976-22.343-4.415l-2.793-1.215c-13.162-6.404-27.278-20.228-33.207-33.785h3v2h2v2h2v2h3v4h2v3h4v2h2v2h2v2h2v2h2v2h2v4h6l1 3c2.015.733 2.015.733 4 1v2h41v-2h4v-2h3v-2h2v-2h4v-2h2v-2h4v-2h2v-2h2v-2h4v-5h2v-4h3v-2h2v-2h2v-4h2v-2h2v-2h2q-.177-9.531-.372-19.061-.066-3.243-.125-6.487-.088-4.657-.187-9.315l-.05-2.936-.06-2.73-.048-2.402c-.089-2.266-.089-2.266-1.158-5.069h-2v-2h-2v-2h-2v-4h-2v-5h-3v-2h-2v-2h-2v-2h-2v-2h-2v-2h-2v-2h-2v-2h-4v-2h-4v-2h-2v-2c-6.354.067-12.708.157-19.061.262q-3.243.051-6.487.084c-3.105.034-6.21.086-9.315.142l-2.936.02-2.73.06-2.402.033c-2.561.494-3.322 1.531-5.069 3.399-2.687.188-2.687.188-5 0v2h-2v2h-2v2h-2v2h-4v2h-2v2h-2v2h-2v2h-2v7h-2v2h-2v2h-3v2h-2v2h-5c5.305-7.313 11.052-14.206 17-21l2.066-2.367c21.417-22.982 56.324-21.354 80.801-4.68"/><path fill="#6effff" d="M4902 734h10v2h2v2h2v2h2v2h3v4h2v2h4v-2h4v-4h2v6h-2v4h8v4h2v3h-2v2h4v2h3v4h2v-4h2v2h4v2h2v2h2v6h2v2h4v2h9v2h10v3h25v-3h13v-2h6v-2h6v-2h4v-2h4v-2h2v-2h5v-2h4v2h-2v2h-2v2h-5v2h-4v2h-4v2h-6v2h-6v3h-11v2h-31v-2h-13v-3h-6v-2h-4v-2h-4v-2h-4v-2h-4v-2h-3v-2h-4v-2h-2v-2h-2v-2h-2v-2h-2v-2h-2v-3h-2v-2h-2v-2h-2v-2h-2v-2h-3v-4h-2v-2h-2v-2h-2v-2h-2v-2h-6v2h-2v2h-2v2h-2v2h-2v2h-3v2h-2v2h-2v2h-2v-4h2v-2h2v-2h2v-2h3v-2h2v-2h2v-2h2z"/><path fill="#42b3b7" d="M5056 717h3c-.6 11.395-10.506 20.854-18.344 28.195-12.258 10.467-27.03 15.396-42.968 15.242l-3.345-.022c-8.124-.165-14.894-.976-22.343-4.415l-2.793-1.215c-13.162-6.404-27.278-20.228-33.207-33.785h3v2h2v2h2v2h3v4h2v3h4v2h2v2h2v2h2v2h2v2h2v4h6l1 3c2.015.733 2.015.733 4 1v2h41v-2h4v-2h3v-2h2v-2h4v-2h2v-2h4v-2h2v-2h2v-2h9v-2h2v-3h2v-4h2v-2h2v-4h2z"/><path fill="#3eaab0" d="m4898.637 703.805 3.935.02 4.115.05q2.076.016 4.15.027 5.082.036 10.163.098v2h4v3h2v2h4v2h2v4h2l-1 3-1.469-1.39c-8.641-7.911-16.271-11.177-28.031-10.993-14.484 1.584-24.493 14.273-33.062 24.946l-2.133 2.671c-10.507 12.609-22.65 22.835-39.305 25.766-15.116 1.131-30.01.66-43-8v-3h2v2c2.674.891 5.237 1.477 8 2v1l40 1v-2h2v-2h2v-2h5v-2h4v-2h2v-2h4v-2h2v-4h2v-2h4v-2h2v-3h2v-4h3v-2h2v-2h2v-2h2v-2h2v-2h2v-2h2v-2h2v-2h2v-2h2v-3c3.633-2.422 5.318-2.233 9.637-2.195"/><path fill="#00ffe4" d="M4741 640h2v4h-2v4h-2v2h-2v4h-2v5h-2v6h-2v6h-2v46h2v8h2v4h2v7h2v2h2v4h2v4h2v2h3v2h2v4h2v2h2v3h2v2h2v2h4v2h2v2h2v2h4v2h5v2h2v2h4v2h6v2h6v2h9v3h35v-3h8v-2h7v-2h6v2h-4v2h-6v3h-9v2h-39v-2h-9v-3h-6v-2h-6v-2h-4v-2h-5v-2h-2v-2h-4v-2h-2v-2h-2v-2h-4v-2h-2v-2h-2v-2h-2v-3h-2v-4h-3v-2h-2v-2h-2v-4h-2v-2h-2v-4h-2v-7h-2v-4h-2v-8h-2v-17h-2v-16h2v-17h2v-6h2v-7h2v-4h2v-4h2v-4h2v-2h2z"/><path fill="#00ffe6" d="M5048 617h4v2h2v2h2v2h4v2h2v2h2v2h2v5h2v2h3v2h2v4h2v2h2v4h2v4h2v4h2v7h2v8h2v17h2v14h-2v17h-2v6h-2v6h-2v5h-2v4h-2v4h-2v2h-2v4h-2v2h-3v2h-2v5h-2v2h-4v2h-2v2h-2v2h-4v-2h2v-2h2v-2h2v-2h4v-3h2v-4h2v-2h2v-2h3v-4h2v-4h2v-2h2v-4h2v-5h2v-6h2v-6h2v-44h-2v-8h-2v-4h-2v-7h-2v-4h-2v-2h-2v-4h-2v-4h-3v-2h-2v-2h-2v-5h-2v-2h-2v-2h-2v-2h-4v-2h-2v-2h-2v-2h-2z"/><path fill="#00ffed" d="M4814 600h9v2h16v2h9v2h6v3h4v2h4v2h4v2h2v2h5v2h2v2h4v2h2v2h2v2h2v2h2v2h2v3h2v2h2v2h3v2h2v2h2v4h-2v-2h-2v-2h-3v-2h-2v-2h-2v-2h-2v-2h-2v-3h-2v-2h-2v-2h-2v-2h-4v-2h-2v-2h-2v-2h-5v-2h-2v-2h-4v-2h-4v-2h-4v-2h-6v-3h-9v-2h-37v2h-9v3h-6v2h-4v2h-4v2h-4v2h-5v2h-2v2h-4v-2h2v-2h2v-2h5v-2h4v-2h4v-2h4v-3h6v-2h9v-2h16z"/><path fill="#52d9d5" d="m4803.895 637.805 2.87.008c3.016.011 6.032.037 9.047.062q3.074.016 6.147.027 7.52.035 15.041.098v2l-3.852.028c-4.73.04-9.46.106-14.19.18q-3.068.042-6.134.063c-2.944.021-5.888.068-8.832.12l-2.756.003c-5.547.127-8.867.855-13.236 4.606a131 131 0 0 0-3 5l-3 1 2 2-2.875 1.688c-3.339 2.47-3.752 3.584-5.125 7.312-2.604 1.764-3.808 2-7 2-1.663 2.41-1.663 2.41-3 5l-1 1a75 75 0 0 0-.205 4.612l-.06 2.972-.051 3.232-.063 3.292q-.097 5.227-.184 10.455l-.13 7.068q-.162 8.685-.307 17.369h2v4h-2v-2h-2q-.075-11.24-.11-22.48-.016-3.825-.04-7.65c-.025-3.66-.036-7.322-.045-10.983l-.032-3.466v-3.215l-.014-2.833C4762 668 4762 668 4764 665h2v-4h2v-5h3v-2h2v-2h2v-2h4v-2h2v-2h2v-2h2v-2h4v-2c4.865-2.554 9.547-2.256 14.895-2.195"/><path fill="#46bec0" d="M4757 673h1v46h2v2h4v2h2v2h2v4h3v5h2v2h2v2h2v4h2v2h4v2h2l1 5c-4.84-.426-7.496-2.764-10.875-6l-1.598-1.508c-12.625-12.13-20.375-26.76-20.877-44.45-.087-8.667.601-16.753 3.35-25.042z"/><path fill="#46bec0" d="M4766 723h5v4h4v4h2v3h2v2h4l1 3 3 1 1 3c2 1.209 2 1.209 4 2l-2 2 7 3v1l42 1v2h-2v2h-41v-1l-2.375-.25c-2.625-.75-2.625-.75-3.937-2.812L4789 750h-2l-1 3-2-2c.375-2.625.375-2.625 1-5h-2v-2h-4v-2h-2v-4h-2v-2h-2v-2h-2v-5h-3v-4h-2z"/><path fill="#52d7d4" d="m5051 671 3 2c.36 1.91.36 1.91.34 4.266v2.67l-.047 2.884-.013 2.951c-.017 3.118-.054 6.236-.092 9.354q-.024 3.165-.042 6.332-.05 7.771-.146 15.543h-2v2h-2v4h-2v2h-2v2h-3v4h-2v5h-4v2h-2v2h-2v2h-4v2h-2v2h-9v-2h7v-2h2v-2h-2v-2h8v-2h-2v-2h2v-3h4v-4h2v2h2v-6h5v-2h2v-4h2l-.007-1.702q-.032-8.734-.048-17.47-.008-3.262-.02-6.526-.017-4.68-.023-9.36l-.015-2.968v-2.73l-.007-2.415C5050 672 5050 672 5051 671"/><path fill="#3ba3ab" d="M5056 717h3c-.6 11.395-10.506 20.854-18.344 28.195-12.398 10.587-27.133 15.355-43.218 15.18l-3.249.035c-6.603-.024-12.087-.848-18.189-3.41v-1h42v-2h5v-2h4v-2h2v-2h2v-2h4v-4h2v-2h2v-2h2v-2h5v-2h2v-3h2v-4h2v-2h2v-4h2z"/><path fill="#45babd" d="M5014 631v3l-3.44.044c-4.211.058-8.42.135-12.63.218q-2.735.051-5.468.084c-2.62.034-5.238.086-7.857.142l-2.471.02c-4.38.114-6.158.4-9.134 3.492-2.687.188-2.687.188-5 0v2h-2v2h-2v2h-2v2h-4v2h-2v2h-2v2h-2v2h-2v7h-2v2h-2v2h-3v2h-2v2h-5c5.305-7.313 11.052-14.206 17-21l2.066-2.367c13.814-14.823 39.56-22.719 58.934-14.633"/><path fill="#00ffdc" d="M4987 600h17v2h17v2h6v2h6v3h4v2h-6v-2h-6v-3h-7v-2h-45v2h-7v3h-6v2h-4v2h-2v2h-4v2h-4v2h-3v2h-2v2h-4v2h-2v2h-2v2h-2v-4h2v-2h2v-2h4v-2h2v-2h2v-2h5v-2h2v-2h4v-2h4v-3h6v-2h7v-2h16z"/><path fill="#46bdbf" d="M4855.453 640.035c12.89 9.944 12.89 9.944 13.547 14.965l-3-1v-2h-2v-2h-2v-2h-12v-2h-2v-2h-2v-2h-3v-4h-2v-2h-4v-2q-7.663.177-15.326.372-2.609.066-5.218.125-3.741.088-7.483.187l-2.37.05c-3.602-.228-3.602-.228-6.603 1.266-2 .04-4 .043-6 0 1-2 1-2 2.855-2.816l2.333-.746c.756-.25 1.513-.498 2.292-.754 18.222-4.944 38.395-2.435 53.973 8.351"/><path fill="#00fff4" d="M5048 767h4v2h-2v2h-2v2h-5v2h-4v2h-4v2h-6v2h-6v3h-11v2h-31v-2h-13v-3h-6v-2h-4v-2h-4v-2h6v2h4v2h9v2h10v3h25v-3h13v-2h6v-2h6v-2h4v-2h4v-2h2v-2h5z"/><path fill="#67ffff" d="M4741 742h2v2h7v2h6v2h-2v4h-2v2h2v2h2v3h2v-3h4v-2h2v7h2v2h2v2h3v-2h6v4h2v2h4v2h-6v-2h-2v-4h-2v4h-2v2h-3v-2h-4v-2h-2v-2h-2v-2h-4v-2h-2v-2h-2v-3h-2v-2h-2v-4h-2v-2h-3v-2h-2z"/><path fill="#52d9d5" d="M4883 704h4v2h-2v3h-2v2h-2v2h-2v2h-2v2h-2v2h-2v2h-2v2h-3v2h-2v4h-2v2h-4v3h-2v2h-2v4h-2v2h-4v2h-2v2h-2v-4h2v-2h-2v-2h4v-2h4v-2h2v-3h2v-2h2v-4h2v-2h2v-2h2v-4h2v-2h3v-2h2v-2h2v-2h4v-3h4z"/><path fill="#43b7ba" d="m4898.637 703.805 3.935.02 4.115.05q2.076.016 4.15.027 5.082.036 10.163.098v2h4v3h2v2h4v2h2v4h2l-1 3-1.469-1.39c-8.652-7.921-16.25-11.131-28.011-11.012-9.154 1.046-16.003 6.057-21.801 12.96L4881 722c-2.219-.277-2.219-.277-4-1v-2h2v-2h2v-2h2v-2h2v-2h2v-2h2v-3c3.633-2.422 5.318-2.233 9.637-2.195"/><path fill="#6effff" d="M5031 611h10v2h5v2h2v4h2v2h2v2h2v2h4v2h2v2h-4v-2h-2v9h-2v-2h-2v-9h-2v2h-5v-4h-2v-2h-2v2h-4v-10h-2v2h-2z"/><path fill="#64fffa" d="M5083 702h2v15h-2v6h-2v6h-2v5h-2v4h-2v2h-2v-2h-2v-7h2v-2h4v-2h-4v-4h2v-2h2v-2h-2v-2h2v-2h-2v-2h2v-2h4v-2h-2v-3h2v-2h2z"/><path fill="#6ff" d="M4758 621h4v4h2v2h4v2h-2v2h-4v-2h-4v2h2v3h-2v2h-2v2h-2v-2h-2v4h2v2h-2v6h-2v-6h-2v-2h-5v-4h3v-2h2v-3h2v-2h2v-2h2v-2h2v-2h2z"/><path fill="#6affff" d="M5064 738h2v2h5v2h2v2h-2v4h-3v2h-2v2h-2v4h-2v3h-4v2h-2v2h-2v2h-2v-2h-2v-2h-7v-2h5v-3h4v3h2v-7h2v-2h8z"/><path fill="#56fff7" d="M4875 627h2v2h2v2h2v3h2v2h2v2h2v2h2v2h2v2h2v2h3v2h2v2h2v4h-7v-2h-2v-2h-2v-2h-2v-2h-2v-2h-2v-2h-2v-2h-2v-2h-2v-2h-4v-5h2z"/><path fill="#63fffb" d="M4791 606h7v5h-2v2h-3v2h-2v2h-2v2h-8v2h-8v-2h-5v-2h5v-2h4v-2h4v-2h4v-2h6z"/><path fill="#0ff" d="M4779 777h6v2h6v2h9v3h35v-3h8v-2h7v-2h6v2h-4v2h-6v3h-9v2h-39v-2h-9v-3h-6v-2h-4z"/><path fill="#44b9bc" d="M5057 673h1v44h-2v4h-2v4h-2v2h-2v4h-2v3h-2v2h-5v-5h2v-4h3v-2h2v-2h2v-4h2v-2h2v-2h2l-.016-3.748q-.026-6.857-.039-13.714-.008-2.973-.02-5.945a3168 3168 0 0 1-.023-8.527l-.015-2.702c0-2.121.05-4.243.113-6.364z"/><path fill="#60fff3" d="M4973 604h45v2h-8v3h-4v4h-2v-2h-2v-2h-13v2h-4v-2h-4v-3h-8z"/><path fill="#6efffb" d="M4735 654h6v5h-2v-3h-2v5h4v4h-2v2h-2v2h2v2h-2v2h2v2h-2v2h-4v7h-2v2h-2v-15h2v-6h2v-6h2z"/><path fill="#51d6d2" d="m4795.905 747.88 2.523.006h2.851l3.1.016 3.157.005c3.342.005 6.684.018 10.027.03q3.39.009 6.779.014 8.329.017 16.658.049v4q-9.53.113-19.061.165-3.243.022-6.487.061c-3.105.037-6.21.054-9.315.067-.97.015-1.938.03-2.936.047h-2.73l-2.402.02c-2.56-.446-3.442-1.388-5.069-3.36 1-1 1-1 2.905-1.12"/><path fill="#54ded9" d="m4962 648 3 1-1.54 1.363c-5.618 5.25-9.114 10.741-12.46 17.637l-2-2c-2.73 1.992-4.74 3.548-6.437 6.5-2.003 3.203-4.357 4.563-7.563 6.5-3.248 1.722-3.248 1.722-4 5h-8l1-3h3v-2h4v-2h2v-2h4v-2h2v-2h2v-4h2v-2h3v-2h2v-2h2v-2h2v-3h2v-2h2v-2h2v-2h4z"/><path fill="#00fff6" d="M4902 734h10v2h2v2h2v2h2v2h3v4h2v2h2v2h2v2h2v2h2v2h2v5h-2v-2h-2v-3h-2v-2h-2v-2h-2v-2h-2v-2h-3v-4h-2v-2h-2v-2h-2v-2h-2v-2h-6v2h-2v2h-2v2h-2v2h-2v2h-3v2h-2v2h-2v2h-2v-4h2v-2h2v-2h2v-2h3v-2h2v-2h2v-2h2z"/><path fill="#4fd2cf" d="m4975.905 747.88 2.523.006h2.851l3.1.016 3.157.005c3.342.005 6.684.018 10.027.03q3.39.009 6.779.014 8.329.017 16.658.049v2h-3v2h-41v-2l-4-1c1-1 1-1 2.905-1.12"/><path fill="#54ddd9" d="M4931 706h4v3h2v2h2v2h2v2h2v2h3v4h2v2h2v-2h2v4h2v4h2v2h2v3h2v2h5v5l-3 1v-2h-2v-2h-2v-2h-2v-2h-2v-3h-4v-4h-2v-2h-2v-2h-3v-4h-2v-2h-2v-2h-2v-2h-2v-2h-4z"/><path fill="#69ffff" d="M5025 767h2v2h4v4h4v-2h-2v-2h4v2h2v2h-2v2h-4v2h-6v2h-6v2h-9v-2h-4v-2h2v-2h8v2h3v-2h4v-4h-2v-2h2z"/><path fill="#41b1b6" d="M5014 631c15.173 2.249 28.475 13.908 37.316 25.766C5054 660.618 5054 660.618 5054 663h-2v2h-2v-2h-2v-4h-2v-5h-3v-2h-2v-2h-2v-2h-2v-2h-2v-2h-2v-2h-2v-2h-4v-2h-4v-2h-2v-2h-7z"/><path fill="#62fffd" d="M4846 609h6v2h4v2h4v2h4v4h-2v2h-8v-2h-6v-2h-2v-2h-3v-4h3z"/><path fill="#58ffef" d="M4877 748h4v2h2v4h4v2h-2v3h-2v2h-2v2h-2v2h-4v2h-2v2h-2v2h-5v-2h2v-2h3v-2h2v-2h4v-2h2v-2h-4v-5h-2v-2h2v-2h2z"/><path fill="#69ffff" d="M4877 625h2v2h2v2h2v2h2v3h2v2h2v2h2v2h2v2h3v2h2v2h4v4h2v2h8v2h-10v5h-2v-3h-4v-2h4v-4h-2v-2h-2v-2h-3v-2h-2v-2h-2v-2h-2v-2h-2v-2h-2v-2h-2v-3h-2v-2h-2z"/><path fill="#72ffff" d="M4868 752h3v4h4v3h4v2h-2v2h-4v2h-2v2h-3v2h-2v2h-4v-2h-2v-4h2v-4h4v2h2z"/><path fill="#49c3c4" d="M4968 638v2h-2v2h-2v2h-2v2h-4v2h-2v2h-2v2h-2v2h-2v7h-2v2h-2v2h-3v2h-2v2h-5c22.49-31 22.49-31 32-31"/><path fill="#4bc8c8" d="M4889 702h37v1l6 1-1 7h-4v-2h-2v-3h-4v-2q-6.112.178-12.225.372-2.079.066-4.159.125-2.99.088-5.98.187l-3.633.11c-3.053.083-3.053.083-6.003 1.206v3h-4v-3h2v-2h2z"/><path fill="#46bfc0" d="m4793 636 1 3-5 1v2h-4v2h-2v2h-2v2h-2v2h-4v2h-2v2h-2v2h-3v5h-2v4h-2l-.75 1.813c-1.414 2.473-2.9 3.62-5.25 5.187 3.72-12.23 19.999-36 35-36"/><path fill="#48c0c2" d="M4962 744h2v2h10v3l3 1v2h37v2h-41v-2h-5v-4h-6z"/><path fill="#4ac6c6" d="M5048 663h2v2h2v2h2c2 2 2 2 2.24 3.987l-.013 2.463v2.79l-.032 3.018-.008 3.085c-.011 3.26-.037 6.521-.062 9.782q-.016 3.31-.027 6.621-.034 8.127-.098 16.254h-2l-.012-3.7a1457 1457 0 0 0-.14-13.597 648 648 0 0 1-.044-5.884c-.009-2.82-.05-5.64-.097-8.46l.012-2.655c-.056-2.342-.15-4.43-.719-6.704-2.41-2.37-2.41-2.37-5-4-.312-3.75-.312-3.75 0-7"/><path fill="#80fff3" d="M4808 779h6v2h7v-2h6v2h8v3h-35v-3h8z"/><path fill="#68ffff" d="M5060 629h2v2h2v5h2v2h2v2h3v4h2v4h-7v2h-2v-8h-2v-2h-2z"/><path fill="#53dbd6" d="M4866 663h5v2h2v2h2v2h2v2h2v2h4v2h2v2h2v2l3 1 3 1v3h-8v-3h-4v-2h2v-2h-4v-2h-2v-2h-2v-2h-2v-2h-2v-2h-3v-2h-2z"/><path fill="#6affff" d="M4741 742h2v2h7v2h6v2h-2v4h-2v2h2v2h2v3h2v4h-2v-2h-2v-2h-2v-3h-2v-2h-2v-4h-2v-2h-3v-2h-2z"/><path fill="#41b2b7" d="M5037 736h4v2h-2v2h-2v2h-2v4h-4v2h-2v2h-2v2h-4v2h-5v-4h3v-2h2v-2h4v-2h2v-2h4v-2h2v-2h2z"/><path fill="#68ffff" d="M4937 623h4v2h-2v2h-2v2h-2v2h4v3h2v2h-4v2h-4v-2h-2v4h2v4h-2v-2h-2v-4h-2v-2h2v-2h2v-5h2v-2h2v-2h2z"/><path fill="#51d7d4" d="M4766 723h5v4h4v4h2v3h2v2h4l1 3 3 1 1 3-3 1v-2h-4v-2h-2v-2h-4v-2h-2v-2h-2v-5h-3v-4h-2z"/><path fill="#6effff" d="M5073 648h2v2h2v4h2v7h2v4h2v6h-4v-2h-4v-6h2v-7h-4v-2h-2v-4h2z"/><path fill="#00ffc2" d="M4929 629h2v5h-2v2h-2v2h-2v2h-2v2h-2v4h-3v2h-2v2h-4v2h-8v-2h-2v-2h4v2h4v-2h4v-2h2v-2h2v-4h3v-2h2v-2h2v-2h2v-3h2z"/><path fill="#50d4d1" d="M4848 648h10v2h2v2h2v2h2v5h2l-1 5-3 1v-4h-2v-2h-4v-3h2v-2h-2v-2h-4v-2h-4z"/><path fill="#6effff" d="M4948 763h2v2h4v2h2v2h2v6h-8v-2h-4v-2h-3v-2h3v-2h2z"/><path fill="#00ffdc" d="M4958 606h2v5h-4v2h-2v2h-4v2h-4v2h-3v2h-2v2h-4v2h-2v2h-2v2h-2v-4h2v-2h2v-2h4v-2h2v-2h2v-2h5v-2h2v-2h4v-2h4z"/><path fill="#62ffff" d="M4854 765h4v2h2v2h2v2h4v2h-2v2h-4v2h-10v-4h2v2h2v-4h2v-2h-2z"/><path fill="#73ffff" d="M4891 738h2v2h3v2h-3v2h-2v2h-2v2h-2v6h-4v-4h-2v-2h-4v-2h4v-2h4v2h2v-4h2v-2h2z"/><path fill="#82ffff" d="M5043 617h5v2h2v2h2v2h2v2h4v2h2v2h-4v-2h-2v9h-2v-2h-2v-9h-2v-2h-2v-4h-3z"/><path fill="#53dbd7" d="M5031 648h2v2h2v2h4v2h2v2h2v5h3v2h2l-1 5-1-3-3 1c-2-1-2-1-4-4l-2-1v-5h-2v-2h-2v-2h-2z"/><path fill="#5dffe7" d="M4837 606h9v5h-3v4h-8v-2h-2v4h-2v-6h2v-2h2v2h2z"/><path fill="#00ffed" d="M4741 640h2v4h-2v4h-2v2h-2v4h-2v5h-2v6h-2v6h-4v-2h2v-6h2v-7h2v-4h2v-4h2v-4h2v-2h2z"/><path fill="#64ffd6" d="M4743 640h5v2h2c-.523 2.763-1.109 5.326-2 8h-5v2h-2v2h-4v-4h2v-2h2v-4h2z"/><path fill="#5cffde" d="M5039 763h7v2h-3v2h3v2h-3v2h-2v2h-2v-2h-2v-2h-4v2h2v2h-4v-4h-4v-2h10v-2h2z"/><path fill="#399fa8" d="M5060 679c2 1 2 1 2.615 2.739.764 4.486.57 9.035.573 13.573l.037 3.092c.01 5.603-.338 10.308-2.225 15.596h-1z"/><path fill="#60ffff" d="M5018 606h7v9h-4v-2h-3v2h-2v-2h-4v2h-4v-2h2v-2h6v-2h2z"/><path fill="#69ffff" d="M4898 725h2v2h4v4h6v3h-8v2h-2v-2h-2v-5h-2v2h-5v-2h2v-2h5z"/><path fill="#65ffff" d="M5079 673h6v15h-2v-2h-2v-2h-4v-5h2v-2h2v-2h-2z"/><path fill="#67ffff" d="M4921 642h4v2h-2v2h2v6h-2v4h-2v-2h-5v-2h-2v-2h2v-2h2v-2h3z"/><path fill="#0fc" d="M4883 754h4v2h-2v3h-2v2h-2v2h-2v2h-4v2h-2v2h-2v2h-5v-2h2v-2h3v-2h2v-2h4v-2h2v-2h2v-3h2z"/><path fill="#41b2b6" d="M4846 636c9.227 2.66 16.565 9.043 23 16l-1 3-2-1v-2h-2v-2h-2v-2h-4v-2h-2v-2h-2v-2h-2v-2h-4v-2h-2z"/><path fill="#8affff" d="M4983 781h25v3h-25z"/><path fill="#4effea" d="M5000 775h4v2h4v2h4v2h-23v-2h9v-2h2z"/><path fill="#80ffe6" d="M4877 625h2v2h2v2h2v2h2v3h2v2h2v2h2v2h2v2h3v2h-5v-2h-2v-2h-2v-2h-2v-2h-2v-2h-2v-3h-2v-2h-2z"/><path fill="#41b4b8" d="M4755 684h1v28l-2-1c-1.472-4.707-1.184-9.741-1.187-14.625l-.038-2.602-.005-2.5-.013-2.268C4753 687 4753 687 4755 684"/><path fill="#81ffff" d="M4791 606h7v5h-2v2h-3v2h-2v2h-2v-6h-4v-2h6z"/><path fill="#40b0b4" d="M4768 736h3v2h2v2h2v2h4v2h4v2h2l1 5c-5.016-.39-7.766-3.044-11.25-6.375l-1.64-1.5c-2.497-2.334-4.014-3.836-5.11-7.125"/><path fill="#53ffd8" d="M4735 727h8v2h-4v5h2v2h5v2h-5v2h-2v-2h-2v-2h-2z"/><path fill="#4bcac9" d="M4864 656h4v5h5v2h2v2h2v2h2v2h2v2h2v2h-4v-2h-2v-2h-2v-2h-2v-2h-2v-2h-5v-4h-2z"/><path fill="#4fd1cf" d="M4843 640h9v2h2v2h2v2h2v2h-8v-2h-2v-2h-2v-2h-3z"/><path fill="#00ffdf" d="M5048 767h4v2h-2v2h-2v2h-5v2h-4v2h-4v2h-2v-4h4v-2h4v-2h2v-2h5z"/><path fill="#58ffde" d="M4887 646h4v2h2v-2h3v2h2v2h2v4h-7v-2h-2v-2h-2v-2h-2z"/><path fill="#60ffe9" d="M4798 606h2v5h2v-2h2v2h2v6h-2v-4h-2v2h-9v-2h3v-2h2z"/><path fill="#5dffd7" d="M4773 765h2v4h2v2h6v4h-8v-2h-2v-2h-2v-2h2z"/><path fill="#74ffff" d="M4731 719h4v2h4v6h-4v2h-2v-4h-2z"/><path fill="#5affe1" d="M4731 711h6v8h2v2h-4v-2h-4z"/><path fill="#56e2dc" d="M4875 709h4v2h-2v2h-2v2h-2v2h-2v2h-3v4h-4v-2h2v-4h2v-2h3v-2h2v-2h2z"/><path fill="#62ffdf" d="M4956 611h8v4h-6v2h-2v4h-2v-4h-2v-2h2v-2h2z"/><path fill="#47bec0" d="M4858 648h4v2h2v2h2v2l4-1c2 3 2 3 1.625 5.688L4871 661h-3v-5h-4v-2h-2v-2h-2v-2h-2z"/><path fill="#0ff" d="M5018 604h9v2h6v3h4v2h-6v-2h-6v-3h-7z"/><path fill="#6affd6" d="M4843 775h3v2h4v2h-7v2h-8v-4h8z"/><path fill="#87ffff" d="M5056 750h8v6h-2v3h-4v-7h-2z"/><path fill="#47bfc1" d="M5037 736h4v2h-2v2h-2v2h-2v4h-8v-2h2v-2h4v-2h2v-2h2z"/><path fill="#75ffff" d="M4921 736h6v2h-2v4h-2v2h2v2h-4v-4h-3v-4h3z"/><path fill="#5effe4" d="M4754 748h2v2h2v2h2v2h2v2h-4v3h-2v-3h-2v-2h-2v-2h2z"/><path fill="#4bc9c9" d="M4777 738h2v2h2v2h4v2h7c-1.25 2-1.25 2-3 4h-4v-2h-2v-2h-4v-2h-2z"/><path fill="#5affe7" d="M5066 648h7v2h-2v4h2v9h-2v-7h-3v-6h-2z"/><path fill="#52ffee" d="M4912 650h2v2h2v2h-2v2h-4v3h-6v-5h8z"/><path fill="#56e2dc" d="M4856 656h8v3h2l-1 5-3 1v-4h-2v-2h-4z"/><path fill="#3da9af" d="M4958 746h4v2h6l1 3 2 .5 2 .5 1 3c-6.061-.31-10.368-3.324-15-7z"/><path fill="#3aa1a8" d="M4862 738h3c-1.453 3.341-3.296 5.565-5.875 8.125l-2.055 2.07c-1.957 1.707-3.7 2.774-6.07 3.805l1-4h2v-2h2v-4h4v-2h2z"/><path fill="#51d7d3" d="m4923 702 9 2-1 7h-4v-2h-2v-3h-2z"/><path fill="#75fff3" d="M4971 771h2v2h6v2h-4v2h-2v2h-9v-2h7z"/><path fill="#8ff" d="M5083 702h2v15h-2v-8h-4v-3h2v-2h2z"/><path fill="#5affe6" d="M4896 729h2v5h2v4h-2v2h-5v-2h3v-4h-3v-3h3z"/><path fill="#68ffff" d="M4943 625h3v2h2v4h-2v-2h-3v5h-4v-5h2v-2h2z"/><path fill="#0ff" d="M4929 629h2v5h-2v2h-2v2h-2v2h-2v2h-2v-4h2v-2h2v-2h2v-3h2z"/><path fill="#59ffff" d="M4829 606h8v5h-2v-2h-2v2h-2v2h-2v-2h-2v-2h2z"/><path fill="#44babd" d="M4766 731h2v3h5v2h2v2h2v4h-2v-2h-2v-2h-2v-2l-4 1c-1.062-1.875-1.062-1.875-2-4z"/><path fill="#54dcd7" d="M5037 727h2v9h-8v-2h2v-3h4z"/><path fill="#59ffdf" d="M4741 654h5v2h-3v9h-2v-4h-4v-5h2v3h2z"/><path fill="#5effbd" d="M4814 604h9v2h2v3h-4v-3h-5v3h-4v-3h2z"/><path fill="#b2ffff" d="M4748 752h4v2h2v2h2v3h2v4h-2v-2h-2v-2h-2v-3h-2v-2h-2z"/><path fill="#8cffff" d="M4729 702h2v2h2v5h-2v8h-2zm354-29h2v15h-2v-2h-2v-5h2zm-354-2h2v8h2v5h-2v2h-2z"/><path fill="#0ff" d="M4750 629h2v5h-2v2h-2v2h-2v2h-3v-4h3v-2h2v-3h2z"/><path fill="#8cffff" d="M5004 604h14v2h-8v3h-4v-3h-2zm-31 0h14v2h-2v3h-4v-3h-8z"/><path fill="#80fff2" d="M4823 604h14v2h-8v3h-4v-3h-2zm-23 0h14v2h-2v3h-4v-3h-8z"/><path fill="#7fffff" d="M5077 723h4v6h-2v5h-2v-7h-2v-2h2z"/><path fill="#0fb" d="M4731 656h2v9h-2v6h-4v-2h2v-6h2z"/><path fill="#9affff" d="M4893 644h5v2h4v4h2v2h-4v-2h-2v-2h-2v-2h-3z"/><path fill="#6affff" d="M4868 752h3v4h2v5h-5z"/><path fill="#44bbbd" d="M4785 748c1.437-.081 2.874-.14 4.313-.187l2.425-.106c2.74.355 3.554 1.187 5.262 3.293-1 1-1 1-4.562 1.063L4789 752v-2h-2l-1 3-2-2z"/><path fill="#0ff" d="M4873 763h4v2h-2v2h-2v2h-2v2h-5v-2h2v-2h3v-2h2z"/><path fill="#389ca5" d="M5027 750h5c-3.87 4.3-9.323 6.781-15.062 7.25L5015 757l3-1v-2h5v-2h4z"/><path fill="#52fff8" d="M4891 734h5v4h-5v2h-2v2h-2v-4h2v-2h2z"/><path fill="#7effff" d="M4846 609h6v2h-4v6h-2v-2h-3v-4h3z"/><path fill="#0ff" d="M4964 604h9v2h-7v3h-6v-3h4z"/><path fill="#41b3b7" d="m4757 717 1 2h2v2h2v4h2v6c-2.333-2.139-3.787-4.167-5.187-7l-1.043-2.062C4757 720 4757 720 4757 717"/><path fill="#3fadb2" d="M5041 736h5v2h-3v2h-2v2h-2v2h-4v-2h2v-2h2v-2h2z"/><path fill="#82ffff" d="M4752 629h4v2h-2v3h4v2h-2v2h-2v-2h-4v-2h2z"/><path fill="#64ffff" d="M4993 773h7v4h-2v2h-2v-2h-3z"/><path fill="#0ff" d="M4933 761h4v2h2v2h2v2h2v2h-4v-2h-2v-2h-2v-2h-2zm125-2h4v2h-2v2h-2v2h-2v2h-4v-2h2v-2h2v-2h2z"/><path fill="#55ffd1" d="M4923 742h4v2h2v-2h2v4h-4v2h-4v-2h2v-2h-2z"/><path fill="#4fd1cf" d="M4852 738h4v2h-2v2h-4v2h-2v2h-2v-4h2v-2h4z"/><path fill="#5effd6" d="M5077 669h2v2h4v2h-4v2h2v2h-2v2h-2z"/><path fill="#48c2c3" d="M4848 640h4v2h2v2h2v2h2v2h-4v-2h-2v-2h-2v-2h-2z"/><path fill="#8cffff" d="M4743 640h3v4h2v2h-2v2h-3v-2h-2v-2h2z"/><path fill="#48c1c3" d="M5023 638h4v2h4v2h2v2h-4v-2h-6z"/><path fill="#9cffff" d="M5060 629h2v2h2v5h-2v4h-2z"/><path fill="#59ffe2" d="M5054 627h2v2h4v5h-2v-3h-2v5h-2z"/><path fill="#bfffff" d="M4937 623h4v2h-2v2h-2v2h-2v2h-4v-2h2v-2h2v-2h2z"/><path fill="#5affd0" d="M4768 619h5v2h4v2h-4v2h-5v-2h3v-2h-3z"/><path fill="#0ff" d="M4758 621h4v2h-2v2h-2v2h-2v2h-4v-2h2v-2h2v-2h2zm279-10h4v2h5v2h2v2h-5v-2h-4v-2h-2z"/><path fill="#81ffff" d="M4960 609h6v2h2v4h-2v2h-2v-6h-4z"/><path fill="#51fff9" d="M5010 606h8v3h-2v2h-4v-2h-2z"/><path fill="#53dad6" d="M4964 642h8l-1 4-7 1z"/><path fill="#52ffd1" d="M4746 640h2v2h2c-.523 2.763-1.109 5.326-2 8h-5v-2h3v-2h2v-2h-2z"/><path fill="#0ff" d="M4943 769h5v2h4v2h2v2h-4v-2h-4v-2h-3z"/><path fill="#85ffff" d="M4921 642h4v2h-2v2h2v4h-2v-2h-5v-2h3z"/><path fill="#55fff9" d="M4985 777h6v2h-2v2h-8v-2h4z"/><path fill="#54ffe8" d="M4789 773h4v2h3v4h-5v-4h-2z"/><path fill="#72ffff" d="M4964 769h2v2h2v2h-2v2h-2v2h-4v-2h2v-2h2z"/><path fill="#0ff" d="M4862 771h4v2h-2v2h-4v2h-4v-2h2v-2h4z"/><path fill="#92ffff" d="M4854 771h2v2h2v2h-2v2h-6v-4h2v2h2z"/><path fill="#68ffff" d="M4914 727h4v7h-4z"/><path fill="#80ffff" d="M4902 729h2v2h6v3h-8z"/><path fill="#4ac6c6" d="M5048 723h2v4h-2v2h-2v2h-3v-4h3v-2h2z"/><path fill="#50ffff" d="M4973 606h8v3h-2v2h-2v-2h-4z"/><path fill="#4efff1" d="M4800 606h8v3h-6v2h-2z"/><path fill="#379ba4" d="M4843 752h7c-2.121 2.333-4.016 3.915-7 5-2.25-.375-2.25-.375-4-1h2v-2h2z"/><path fill="#80ffff" d="M5018 606h7v3h-4v2h-3z"/><path fill="#8ff" d="M5046 763h2v2h4v2h-4v2h-2v-2h-3v-2h3z"/><path fill="#9affff" d="M4873 756h2v3h4v2h-2v2h-4z"/><path fill="#4bc8c8" d="M4860 731h2v5h-2v2h-2v2h-2v-4h2v-2h2z"/><path fill="#5bffff" d="M4914 654h2v5h-2v2h-2v-2h-2v-3h4z"/><path fill="#8ff" d="M4766 619h2v2h3v2h-3v2h-2v-2h-4v-2h4z"/><path fill="#92ffff" d="M4773 615h4v2h-2v4h-2v-2h-5v-2h5z"/><path fill="#5affe9" d="M4916 654h5v2h-3v5l-2 1-2-1v-2h2z"/><path fill="#80ffe0" d="M4966 606h7v5h-2v-2h-5z"/><path fill="#54fff4" d="M4829 777h6v4h-6z"/><path fill="#4efff4" d="M4802 777h4v2h2v2h-8v-2h2z"/><path fill="#6effdf" d="M5021 775h6v4h-6z"/><path fill="#45bcbe" d="M4864 729h4v2h-2v3h-2v2h-2v-5h2z"/><path fill="#4fd2cf" d="M4864 723h4v2h-2v4h-2v2h-2v-4h2z"/><path fill="#4effe9" d="M4904 727h6v4h-6z"/><path fill="#69ffff" d="M4908 723h2v2h4v2h-2v4h-2v-4h-2z"/><path fill="#4ac7c7" d="M4762 721h2v2h2v2h2v4h-2v-2h-2v-2h-2z"/><path fill="#55dfda" d="M5031 648h2v2h2v2h2v4h-2v-2h-2v-2h-2z"/><path fill="#0ff" d="M4902 648h4v2h6v2h-8v-2h-2z"/><path fill="#50d2cf" d="M5025 642h4v2h2v2h2v2h-4v-2h-2v-2h-2z"/><path fill="#5bffe5" d="M4802 609h2v2h2v6h-2v-4h-4v-2h2z"/><path fill="#54ffff" d="M4785 611h4v4h-4v2h-2v-4h2z"/><path fill="#0f445f" d="M3265 915c1.913 3.266 2.357 5.994 2.625 9.75l.227 2.984L3268 930c-1.405-2.65-2.443-5.157-3.187-8.062l-.543-2.036C3264 918 3264 918 3265 915"/><path fill="#65ffe1" d="M4941 756h5v3h-3v2h-4v-2h2z"/><path fill="#0f3d5b" d="m3246 1060 1 2c-.996 2.164-.996 2.164-2.437 4.625l-1.434 2.477L3242 1071l-2-2z"/><path fill="#a2ffff" d="M5012 777h2v2h7v2h-9zm-69-14h3v6h-3v-2h-2v-2h2z"/><path fill="#4dffe1" d="M4752 752h4v2h2v5h-2v-3h-2v-2h-2z"/><path fill="#54ffcb" d="M4739 734h2v2h5v2h-5v2h-2z"/><path fill="#51d6d3" d="M5043 661h3v2h2l-1 5-1-3-3 1z"/><path fill="#52ffed" d="M4831 606h6v5h-2v-2h-4z"/><path fill="#4ed1cf" d="M4766 661h2v6l-4 2v-4h2z"/><path fill="#69ffff" d="M5068 656h3v7h-3z"/><path fill="#67ffe1" d="M4752 636h2v2h2l-1 5-3 1v-2h2v-2h-2z"/><path fill="#b6ffff" d="M4839 606h7v3h-7z"/><path fill="#a4ffff" d="M4791 606h7v3h-7z"/><path fill="#80ffe5" d="M4979 777h2v4h-8v-2h6zm-136-2h3v2h4v2h-7z"/><path fill="#7fffe5" d="M4956 769h2v6h-4v-4h2z"/><path fill="#80ffe5" d="M4879 754h4v2h-2v3h-4v-3h2z"/><path fill="#60ffdd" d="M4933 746h2v6h-4v-4h2z"/><path fill="#41b2b6" d="M4860 736h4v2h-2v2h-2v2h-2v-4h2z"/><path fill="#6affff" d="M5073 734h4v4h-2v2h-2z"/><path fill="#57e4de" d="M5033 731h4v3h-2v2h-4v-2h2z"/><path fill="#50d2d0" d="M5048 717h2v6h-2v2h-2v-4h2z"/><path fill="#4ecfce" d="M4937 715h2v2h2v2h2v2h-4v-2h-2z"/><path fill="#50ffff" d="M5081 709h2v8h-2v-4h-2v-2h2z"/><path fill="#4ccbca" d="M4925 706h4v3h2v2h-4v-2h-2z"/><path fill="#4fd3d0" d="M4881 673h2v2h2v2h2v2h-4v-2h-2z"/><path fill="#50fff2" d="M5079 673h4v8h-2v-6h-2z"/><path fill="#50ffff" d="M4731 671h2v4h2v2h-2v2h-2z"/><path fill="#58ffb0" d="M4912 650h2v2h2v2h-2v2h-4v-2h2z"/><path fill="#56e1db" d="M4848 648h6v2h2v2h-4v-2h-4z"/><path fill="#6ff" d="M4743 650h5v2h-2v2h-5v-2h2z"/><path fill="#6effd4" d="M4925 638h4v4h-6v-2h2z"/><path fill="#41b2b6" d="M4837 633c2.343.256 4.678.593 7 1l1 2h-8z"/><path fill="#66ffe0" d="M4758 629h4v2h2v3h-4v-3h-2z"/><path fill="#7ff" d="M4760 623h2v2h2v2h-2v2h-2v-2h-2v-2h2z"/><path fill="#54ffc9" d="M4952 615h6v2h-2v4h-2v-4h-2z"/><path fill="#50ffff" d="M4791 609h7v2h-2v2h-3v-2h-2z"/><path fill="#80ffe2" d="M4796 777h2v4h-7v-2h5z"/><path fill="#5dffe0" d="M4989 775h4v2h3v2h-5v-2h-2z"/><path fill="#4effff" d="M4966 773h2v2h3v2h-7v-2h2z"/><path fill="#43b6ba" d="M4969 750h8v2c-3.325 1.108-5.622.845-9 0z"/><path fill="#50fff0" d="M5066 738h7v4h-2v-2h-5z"/><path fill="#76ffe2" d="M4735 731h2v3h2v4h-2v-2h-2z"/><path fill="#42b3b7" d="M5048 727h2v4h-2v3h-2v-5h2z"/><path fill="#4bffd9" d="M4875 627h2v2h2v5h-2v-3h-2z"/><path fill="#60ffc8" d="M4837 606h2v5h2v2h-4zm-39 0h2v7h-4v-2h2z"/><path fill="#00ff71" d="M4958 606h2v5h-6v-2h4z"/><path fill="#50ffff" d="M4839 609h7v2h-3v2h-2v-2h-2z"/><path fill="#22d1b7" d="M2740 1060c3.08 2.773 4.688 5.063 6 9-3-1-3-1-4.687-3.937C2740 1062 2740 1062 2740 1060"/><path fill="#3da9af" d="M4778 746h3v2h4l1 3c-3.242-.35-4.615-.562-6.812-3.062z"/></svg>