<?xml version="1.0" encoding="UTF-8"?>
<svg version="1.1" xmlns="http://www.w3.org/2000/svg" width="1667" height="1667">
<path d="M0 0 C1.37570663 0.00090637 1.37570663 0.00090637 2.77920532 0.00183105 C105.18173112 0.18384645 206.9573775 32.54488256 289.6875 93.1875 C290.25823242 93.60515625 290.82896484 94.0228125 291.41699219 94.453125 C305.64771225 104.90765518 319.26995781 116.15463861 332.32421875 128.04296875 C333.8349549 129.41386816 335.35740601 130.77203746 336.89453125 132.11328125 C342.77604453 137.27338234 348.33424412 142.7277657 353.875 148.25 C354.63554688 149.00595459 355.39609375 149.76190918 356.1796875 150.54077148 C360.33934279 154.71176964 364.33160463 158.97024263 368.17504883 163.43432617 C370.04802189 165.60540277 371.99212707 167.70628915 373.9375 169.8125 C378.98932357 175.41900014 383.61571769 181.31148749 388.21630859 187.28808594 C389.67799506 189.17522844 391.15915296 191.04553354 392.64453125 192.9140625 C447.81018178 262.89311879 482.01054262 349.40268675 492 437.75 C492.08131165 438.46854156 492.16262329 439.18708313 492.24639893 439.92739868 C494.21543163 457.5991496 494.92764013 475.10349539 494.9375 492.875 C494.93851212 494.52347931 494.93851212 494.52347931 494.93954468 496.20526123 C494.86432652 573.84305781 476.33345827 648.70735038 441.6875 718.1875 C440.94862549 719.6712915 440.94862549 719.6712915 440.19482422 721.18505859 C419.97396152 761.51337104 392.75544386 802.59972123 359.91796875 833.9296875 C357.99169731 835.87957347 356.22274689 837.87312253 354.44140625 839.953125 C350.69014427 844.27476308 346.63279264 848.17653989 342.4375 852.0625 C341.69097168 852.75867432 340.94444336 853.45484863 340.17529297 854.17211914 C338.01678437 856.18170882 335.8528597 858.18529812 333.6875 860.1875 C332.85750488 860.95924561 332.85750488 860.95924561 332.01074219 861.74658203 C325.45411857 867.84041048 318.69641008 873.62184235 311.6875 879.1875 C311.05489258 879.69265137 310.42228516 880.19780273 309.77050781 880.71826172 C236.44894598 939.1167292 148.38841202 975.84316705 27.3125 988.4375 C26.55866028 988.47869965 25.80482056 988.51989929 25.02813721 988.56234741 C13.91034191 989.15131625 2.81938642 989.30496675 -8.3125 989.1875 C-9.35132324 989.17686523 -10.39014648 989.16623047 -11.46044922 989.15527344 C-92.48857158 987.79927495 -173.18439989 964.91868935 -317.3125 873.1875 C-317.82280762 872.76210937 -318.33311523 872.33671875 -318.85888672 871.8984375 C-334.54720017 858.79754944 -350.17315502 844.85655822 -363.4765625 829.3046875 C-365.6645617 826.78150545 -367.92543113 824.33195481 -370.1875 821.875 C-375.10492746 816.47025991 -379.76606619 810.90557326 -384.3125 805.1875 C-384.8070166 804.57084473 -385.3015332 803.95418945 -385.81103516 803.31884766 C-419.94990229 760.65300615 -446.81780891 712.60320885 -465.3125 661.1875 C-465.88411865 659.61427979 -465.88411865 659.61427979 -466.46728516 658.00927734 C-483.25354304 611.35535312 -493.32393921 560.47110511 -493.515625 510.8203125 C-493.52263931 509.59458527 -493.52965363 508.36885803 -493.53688049 507.10598755 C-493.55427482 503.17480795 -493.56131449 499.24370988 -493.5625 495.3125 C-493.56294186 494.64200119 -493.56338371 493.97150238 -493.56383896 493.28068542 C-493.57093121 472.74903349 -493.18056507 452.54936297 -490.3125 432.1875 C-490.14089355 430.90278809 -489.96928711 429.61807617 -489.79248047 428.29443359 C-479.44022849 351.2989371 -450.87584277 276.89777438 -406.3125 213.1875 C-405.5380957 212.07737549 -405.5380957 212.07737549 -404.74804688 210.94482422 C-397.05693583 199.9758794 -388.9156145 189.45409691 -380.3125 179.1875 C-379.81395508 178.5898584 -379.31541016 177.9922168 -378.80175781 177.37646484 C-367.64296258 164.0366658 -355.709736 151.50473241 -343.4375 139.1875 C-342.55779541 138.30312256 -341.67809082 137.41874512 -340.77172852 136.50756836 C-335.77922326 131.52736341 -330.68312968 126.7561937 -325.3125 122.1875 C-324.3030447 121.31028776 -323.29390608 120.4327109 -322.28515625 119.5546875 C-313.55533555 112.07867997 -304.50281036 105.08616131 -295.3125 98.1875 C-294.68617676 97.713125 -294.05985352 97.23875 -293.41455078 96.75 C-209.67761727 33.37907692 -104.7093149 -0.12866333 0 0 Z M-49.3125 163.1875 C-50.37694336 163.35910645 -51.44138672 163.53071289 -52.53808594 163.70751953 C-113.82016162 173.86070915 -173.94391764 200.53433665 -219.8359375 242.921875 C-221.88778734 244.79896161 -223.96910954 246.62124637 -226.07421875 248.4375 C-230.46766102 252.27330518 -234.62918715 256.31200068 -238.75 260.4375 C-239.86967163 261.55838013 -239.86967163 261.55838013 -241.01196289 262.7019043 C-245.73362289 267.47610158 -250.14911586 272.31553693 -254.2890625 277.60546875 C-256.48964247 280.41354473 -258.80212639 283.10492335 -261.125 285.8125 C-282.40534712 311.3948926 -299.22538898 341.2556043 -311.3125 372.1875 C-311.60962891 372.93354492 -311.90675781 373.67958984 -312.21289062 374.44824219 C-323.73321525 403.52513995 -330.18228184 434.13105515 -333.3125 465.1875 C-333.42053955 466.25774414 -333.42053955 466.25774414 -333.53076172 467.34960938 C-340.65791247 542.74238707 -319.0050912 622.42553182 -275.3125 684.1875 C-274.78640137 684.9314502 -274.26030273 685.67540039 -273.71826172 686.44189453 C-265.81060891 697.54640381 -257.46799527 708.08907059 -248.3125 718.1875 C-247.78350098 718.77289551 -247.25450195 719.35829102 -246.70947266 719.96142578 C-238.33857547 729.19783635 -229.80190691 738.09073642 -220.3125 746.1875 C-219.41273438 746.97640625 -218.51296875 747.7653125 -217.5859375 748.578125 C-201.99755838 762.14855815 -185.13194525 773.75160502 -167.3125 784.1875 C-166.44818359 784.69522949 -165.58386719 785.20295898 -164.69335938 785.72607422 C-89.63292772 829.35249762 2.34191413 840.48047936 86.09375 818.55859375 C92.0121897 816.92986287 97.85531111 815.09994953 103.6875 813.1875 C104.67314941 812.86974609 105.65879883 812.55199219 106.67431641 812.22460938 C146.81216121 799.11890188 187.32331578 777.35439607 218.28125 748.41796875 C220.24932355 746.5936668 222.24911222 744.84401817 224.28515625 743.09765625 C229.11631818 738.88262783 233.66403149 734.39704793 238.19604492 729.86425781 C239.61418284 728.44830053 241.04046665 727.04051711 242.46679688 725.6328125 C248.64965899 719.4628403 254.25860354 713.02463644 259.6875 706.1875 C260.68791635 704.97887362 261.69134386 703.77272623 262.69921875 702.5703125 C287.20154808 672.92895144 305.09334929 638.38770828 317.6875 602.1875 C318.11820801 600.95918457 318.11820801 600.95918457 318.55761719 599.70605469 C346.82291349 518.04696585 339.40601456 425.78731083 302.06347656 348.35375977 C288.22956404 320.35151132 270.97644792 294.73748533 249.93359375 271.65234375 C248.43570488 270.00857353 246.94866833 268.35484844 245.47265625 266.69140625 C237.71991429 257.95764949 229.59146911 249.74570225 220.6875 242.1875 C219.32431641 240.99060547 219.32431641 240.99060547 217.93359375 239.76953125 C166.59434663 194.99913626 101.8162659 169.34937427 34.6875 161.1875 C33.4487915 161.02846191 33.4487915 161.02846191 32.18505859 160.86621094 C22.07468416 159.74395334 11.84631576 159.94348963 1.6875 159.9375 C0.66072144 159.93682526 -0.36605713 159.93615051 -1.4239502 159.93545532 C-17.58156609 159.95230257 -33.33930687 160.54932357 -49.3125 163.1875 Z " fill="#188A8B" transform="translate(1055.3125,338.8125)"/>
<path d="M0 0 C1.37570663 0.00090637 1.37570663 0.00090637 2.77920532 0.00183105 C69.41171917 0.12026703 135.5237615 13.69411595 196.6875 40.1875 C196.6875 41.1775 196.6875 42.1675 196.6875 43.1875 C195.86886475 43.57381592 195.05022949 43.96013184 194.20678711 44.3581543 C153.02739025 63.85812318 114.71382595 86.89536111 79.6875 116.1875 C78.89738525 116.84806396 78.89738525 116.84806396 78.09130859 117.52197266 C65.28709537 128.26376228 53.15495805 139.64739257 41.3125 151.4375 C40.56830811 152.17701904 39.82411621 152.91653809 39.05737305 153.6784668 C38.37070557 154.367229 37.68403809 155.05599121 36.9765625 155.765625 C36.36506348 156.37825195 35.75356445 156.99087891 35.12353516 157.62207031 C33.59390948 159.14545262 33.59390948 159.14545262 32.6875 161.1875 C32.05841232 161.18083817 31.42932465 161.17417633 30.78117371 161.16731262 C24.078209 161.0995922 17.37534508 161.05515051 10.67211914 161.02270508 C8.18900593 161.00785717 5.70591774 160.98757376 3.22290039 160.96118164 C-79.71317835 160.1033962 -157.86485178 190.06343035 -220.3125 244.1875 C-221.52099609 245.22583984 -221.52099609 245.22583984 -222.75390625 246.28515625 C-234.01533125 256.17463099 -245.05221476 266.79672498 -254.296875 278.6171875 C-256.45023377 281.36313725 -258.71945755 283.98398471 -261 286.625 C-272.72717796 300.71946544 -282.53085394 316.12526395 -291.3125 332.1875 C-292.03518066 333.49146729 -292.03518066 333.49146729 -292.77246094 334.82177734 C-313.13130915 371.73129624 -326.13714765 412.33540188 -331.3125 454.1875 C-331.41546387 455.00412109 -331.51842773 455.82074219 -331.62451172 456.66210938 C-342.03421917 543.29455619 -316.04368323 631.75340042 -262.4609375 700.23046875 C-245.82349689 721.24219086 -227.37578879 740.75702129 -205.94775391 756.9375 C-204.38674577 758.13074599 -202.85458713 759.36145337 -201.32421875 760.59375 C-157.46911302 795.63232994 -102.4552627 816.83253595 -47.3125 825.1875 C-46.22243652 825.35266113 -45.13237305 825.51782227 -44.00927734 825.68798828 C-30.81877178 827.56956652 -18.11578407 828.31246467 -4.8203125 827.8046875 C-2.58409088 827.73768143 -0.34784363 827.67152594 1.88842773 827.60620117 C6.30753295 827.47489167 10.70304615 827.23469 15.11352539 826.93481445 C30.98565021 826.21244137 30.98565021 826.21244137 37.22509766 831.51928711 C40.55779801 834.85816816 43.44083154 838.48391424 46.23782349 842.27682495 C48.06836404 844.68947917 50.12275822 846.7391349 52.34375 848.79296875 C52.98521973 849.39657227 53.62668945 850.00017578 54.28759766 850.62207031 C54.91456543 851.20053711 55.5415332 851.77900391 56.1875 852.375 C56.89052246 853.02952148 57.59354492 853.68404297 58.31787109 854.35839844 C97.82009919 890.92435043 142.79855757 920.66113588 191.65478516 943.23291016 C193.68300254 944.18538793 195.68757861 945.17713769 197.6875 946.1875 C197.6875 946.8475 197.6875 947.5075 197.6875 948.1875 C137.37038341 973.82337764 75.1678701 986.80036752 9.6875 989.1875 C8.73166016 989.22359375 7.77582031 989.2596875 6.79101562 989.296875 C1.41096564 989.47197834 -3.93431289 989.3951377 -9.3125 989.1875 C-11.17116699 989.11789062 -11.17116699 989.11789062 -13.06738281 989.046875 C-87.41065554 986.11441773 -157.67770177 968.41175723 -224.3125 935.1875 C-225.69912842 934.49720703 -225.69912842 934.49720703 -227.11376953 933.79296875 C-240.65698248 927.00056421 -253.5716846 919.38001731 -266.3125 911.1875 C-266.92448242 910.79433594 -267.53646484 910.40117188 -268.16699219 909.99609375 C-284.97499462 899.13152927 -300.96501322 887.01900534 -316.3125 874.1875 C-316.83392578 873.75244141 -317.35535156 873.31738281 -317.89257812 872.86914062 C-335.04554986 858.51086794 -352.27854878 843.17571122 -366.7265625 826.05078125 C-368.61441407 823.83278815 -370.58952792 821.70507845 -372.5625 819.5625 C-377.61432357 813.95599986 -382.24071769 808.06351251 -386.84130859 802.08691406 C-388.30299506 800.19977156 -389.78415296 798.32946646 -391.26953125 796.4609375 C-404.93196373 779.12400686 -417.47663288 760.42092462 -428.3125 741.1875 C-428.9636377 740.04112061 -428.9636377 740.04112061 -429.62792969 738.87158203 C-460.32353105 684.57125231 -480.74539424 625.39178226 -489.5 563.625 C-489.65500977 562.53944824 -489.81001953 561.45389648 -489.96972656 560.33544922 C-492.90364865 538.47804923 -493.687751 516.72523626 -493.625 494.6875 C-493.6227769 493.30527758 -493.62060042 491.92305508 -493.61846924 490.54083252 C-493.57590809 470.61230172 -493.22545626 450.93952427 -490.3125 431.1875 C-490.16331116 430.15085205 -490.16331116 430.15085205 -490.0111084 429.09326172 C-482.15967332 374.59613315 -466.90059119 321.32328922 -441.42285156 272.33886719 C-440.15578548 269.883857 -438.91839083 267.41475037 -437.6796875 264.9453125 C-424.25153205 238.41105805 -407.86472577 213.42725026 -389.3125 190.1875 C-388.8086377 189.55360352 -388.30477539 188.91970703 -387.78564453 188.26660156 C-381.65313196 180.57010486 -375.4340883 173.01775739 -368.7265625 165.8125 C-367.44423924 164.41812908 -366.16770894 163.01731061 -364.94018555 161.57446289 C-359.51599741 155.20467391 -353.61042465 149.33419229 -347.68823242 143.43286133 C-345.87889067 141.62887915 -344.07495681 139.81961335 -342.27148438 138.00976562 C-336.45559032 132.19016625 -330.62023379 126.47935762 -324.3125 121.1875 C-323.25588216 120.27546693 -322.19986654 119.36273558 -321.14453125 118.44921875 C-258.33770181 64.90497476 -182.18053365 26.93538564 0 0 Z " fill="#188789" transform="translate(610.3125,338.8125)"/>
<path d="M0 0 C1.58105469 1.40283203 1.58105469 1.40283203 2.921875 3.3828125 C3.67887695 4.48351074 3.67887695 4.48351074 4.45117188 5.60644531 C4.96228516 6.39631836 5.47339844 7.18619141 6 8 C6.50595703 8.77182617 7.01191406 9.54365234 7.53320312 10.33886719 C9.13643255 12.83289224 10.69897496 15.34819725 12.25 17.875 C13.09534302 19.24821411 13.09534302 19.24821411 13.95776367 20.64916992 C21.93824497 33.70536829 29.26436573 47.07459341 35.94628906 60.83935547 C37.07355524 63.15082574 38.22060437 65.45196275 39.3671875 67.75390625 C63.19121044 116.08558173 77.3890775 169.47546119 83.3125 222.9375 C83.39399292 223.67214478 83.47548584 224.40678955 83.55944824 225.16369629 C85.4723429 242.71354189 86.21036448 260.16151309 86.1875 277.8125 C86.18656342 278.75530823 86.18562683 279.69811646 86.18466187 280.66949463 C86.1507125 296.52602271 85.72250101 312.22273613 84 328 C83.92694641 328.67170227 83.85389282 329.34340454 83.77862549 330.03546143 C79.92048123 365.09320564 72.80369647 399.41481965 62 433 C61.57799316 434.31339355 61.57799316 434.31339355 61.14746094 435.65332031 C49.51593512 470.75170421 25.87338327 503.02690214 2.45751953 531.23388672 C1.11170039 532.86464981 -0.21594185 534.50784417 -1.53515625 536.16015625 C-3.65574931 538.80453216 -5.81696351 541.40712141 -8 544 C-8.97839844 545.22976563 -8.97839844 545.22976563 -9.9765625 546.484375 C-10.62367188 547.23203125 -11.27078125 547.9796875 -11.9375 548.75 C-12.48277344 549.40484375 -13.02804687 550.0596875 -13.58984375 550.734375 C-20.17600175 554.19290853 -30.09825122 550.19275359 -36.875 548.375 C-37.87313721 548.10921143 -38.87127441 547.84342285 -39.8996582 547.56958008 C-56.93846328 542.92877074 -73.10583781 536.67763479 -89 529 C-89.78729492 528.62004883 -90.57458984 528.24009766 -91.38574219 527.84863281 C-110.00060311 518.7379197 -126.99251645 507.11724346 -143 494 C-144.66534134 492.6650117 -146.33153951 491.33108796 -148 490 C-146.54386729 485.67908447 -144.34699847 482.66572911 -141.5 479.125 C-131.35194974 466.22071197 -122.9993028 452.31270604 -115 438 C-114.5771875 437.25298828 -114.154375 436.50597656 -113.71875 435.73632812 C-89.61048536 392.90648923 -75.02400092 341.15800316 -74.796875 291.90234375 C-74.78628555 290.36619415 -74.78628555 290.36619415 -74.77548218 288.79901123 C-74.47033952 257.76803166 -74.47033952 257.76803166 -78 227 C-78.20399414 225.85982422 -78.40798828 224.71964844 -78.61816406 223.54492188 C-88.78075885 168.19058463 -110.38798385 115.32021683 -146.26953125 71.56640625 C-148 69 -148 69 -148 65 C-146.27395453 63.14380389 -144.6459832 61.64100053 -142.6875 60.0625 C-142.11354492 59.59013916 -141.53958984 59.11777832 -140.94824219 58.63110352 C-106.16262163 30.58599666 -46.51844512 -4.44449574 0 0 Z " fill="#16737C" transform="translate(1019,555)"/>
<path d="M0 0 C0.33 0.66 0.66 1.32 1 2 C-0.07674702 4.28258633 -1.19546116 6.4356434 -2.4375 8.625 C-2.77587891 9.23601563 -3.11425781 9.84703125 -3.46289062 10.4765625 C-4.30146192 11.988353 -5.14982577 13.49470399 -6 15 C-6.66 14.67 -7.32 14.34 -8 14 C-6.6744419 10.37723685 -5.05653045 7.36494652 -2.875 4.1875 C-2.33617187 3.39730469 -1.79734375 2.60710938 -1.2421875 1.79296875 C-0.83226562 1.20128906 -0.42234375 0.60960937 0 0 Z " fill="#0E3D5B" transform="translate(1342,1006)"/>
<path d="M0 0 C2.26954631 3.40431947 2.36549949 5.16524202 2.625 9.1875 C2.69976563 10.27417969 2.77453125 11.36085938 2.8515625 12.48046875 C2.92503906 13.72763672 2.92503906 13.72763672 3 15 C1.33141986 11.97965874 0.47672243 9.19354198 -0.1875 5.8125 C-0.36667969 4.93207031 -0.54585937 4.05164063 -0.73046875 3.14453125 C-0.81941406 2.43683594 -0.90835937 1.72914063 -1 1 C-0.67 0.67 -0.34 0.34 0 0 Z " fill="#0F405D" transform="translate(1379,741)"/>
</svg>
